{
	"asset":{
		"generator":"Khronos glTF Blender I/O v4.2.57",
		"version":"2.0"
	},
	"scene":0,
	"scenes":[
		{
			"name":"Scene",
			"nodes":[
				1,
				2,
				7,
				12,
				17,
				18
			]
		}
	],
	"nodes":[
		{
			"mesh":0,
			"name":"tile"
		},
		{
			"children":[
				0
			],
			"name":"tmpParent"
		},
		{
			"mesh":1,
			"name":"COL",
			"scale":[
				0.48748254776000977,
				0.38934987783432007,
				0.38934987783432007
			],
			"translation":[
				0,
				0.23383615911006927,
				0
			]
		},
		{
			"mesh":2,
			"name":"leaf_01.031"
		},
		{
			"mesh":3,
			"name":"leaf_01.032"
		},
		{
			"mesh":4,
			"name":"leaf_02.033"
		},
		{
			"mesh":5,
			"name":"leaf_02.034"
		},
		{
			"children":[
				3,
				4,
				5,
				6
			],
			"mesh":6,
			"name":"carrot_jung.001",
			"scale":[
				6.020441055297852,
				6.020441055297852,
				6.020441055297852
			],
			"translation":[
				0.0007449830882251263,
				0.20248591899871826,
				6.989948451519012e-05
			]
		},
		{
			"mesh":7,
			"name":"leaf_01.033"
		},
		{
			"mesh":8,
			"name":"leaf_01.034"
		},
		{
			"mesh":9,
			"name":"leaf_02.035"
		},
		{
			"mesh":10,
			"name":"leaf_02.036"
		},
		{
			"children":[
				8,
				9,
				10,
				11
			],
			"mesh":11,
			"name":"carrot_jung.002",
			"scale":[
				6.020441055297852,
				6.020441055297852,
				6.020441055297852
			],
			"translation":[
				0.0007449830882251263,
				0.20248591899871826,
				6.989948451519012e-05
			]
		},
		{
			"mesh":12,
			"name":"leaf_01.035"
		},
		{
			"mesh":13,
			"name":"leaf_01.036"
		},
		{
			"mesh":14,
			"name":"leaf_02.037"
		},
		{
			"mesh":15,
			"name":"leaf_02.038"
		},
		{
			"children":[
				13,
				14,
				15,
				16
			],
			"mesh":16,
			"name":"carrot_jung.003",
			"scale":[
				6.020441055297852,
				6.020441055297852,
				6.020441055297852
			],
			"translation":[
				0.0007449830882251263,
				0.20248591899871826,
				6.989948451519012e-05
			]
		},
		{
			"mesh":17,
			"name":"field.004",
			"scale":[
				6.020441055297852,
				6.020441055297852,
				6.020441055297852
			],
			"translation":[
				0.0007449830882251263,
				0.20248591899871826,
				6.989948451519012e-05
			]
		}
	],
	"materials":[
		{
			"name":"dirt",
			"pbrMetallicRoughness":{
				"baseColorFactor":[
					0.9764705896377563,
					0.7137255072593689,
					0.45098039507865906,
					1
				]
			}
		},
		{
			"name":"foliage",
			"pbrMetallicRoughness":{
				"baseColorFactor":[
					0.2666666805744171,
					0.7098039388656616,
					0.5529412031173706,
					1
				]
			}
		},
		{
			"alphaMode":"BLEND",
			"doubleSided":true,
			"name":"Material",
			"pbrMetallicRoughness":{
				"baseColorTexture":{
					"index":0
				},
				"metallicFactor":0
			}
		},
		{
			"doubleSided":true,
			"name":"carrot_jung",
			"pbrMetallicRoughness":{
				"baseColorTexture":{
					"index":1
				},
				"metallicFactor":0
			}
		},
		{
			"doubleSided":true,
			"name":"field",
			"pbrMetallicRoughness":{
				"baseColorTexture":{
					"index":2
				},
				"metallicFactor":0
			}
		}
	],
	"meshes":[
		{
			"name":"Mesh tile",
			"primitives":[
				{
					"attributes":{
						"POSITION":0,
						"NORMAL":1,
						"TEXCOORD_0":2
					},
					"indices":3,
					"material":0
				},
				{
					"attributes":{
						"POSITION":4,
						"NORMAL":5,
						"TEXCOORD_0":6
					},
					"indices":7,
					"material":1
				}
			]
		},
		{
			"name":"\u5e73\u9762",
			"primitives":[
				{
					"attributes":{
						"POSITION":8,
						"NORMAL":9,
						"TEXCOORD_0":10
					},
					"indices":11
				}
			]
		},
		{
			"name":"Plane.089",
			"primitives":[
				{
					"attributes":{
						"POSITION":12,
						"NORMAL":13,
						"TEXCOORD_0":14
					},
					"indices":15,
					"material":2
				}
			]
		},
		{
			"name":"Plane.092",
			"primitives":[
				{
					"attributes":{
						"POSITION":16,
						"NORMAL":17,
						"TEXCOORD_0":18
					},
					"indices":19,
					"material":2
				}
			]
		},
		{
			"name":"Plane.090",
			"primitives":[
				{
					"attributes":{
						"POSITION":20,
						"NORMAL":21,
						"TEXCOORD_0":22
					},
					"indices":23,
					"material":2
				}
			]
		},
		{
			"name":"Plane.091",
			"primitives":[
				{
					"attributes":{
						"POSITION":24,
						"NORMAL":25,
						"TEXCOORD_0":26
					},
					"indices":27,
					"material":2
				}
			]
		},
		{
			"name":"Circle.003",
			"primitives":[
				{
					"attributes":{
						"POSITION":28,
						"NORMAL":29,
						"TEXCOORD_0":30
					},
					"indices":31,
					"material":3
				}
			]
		},
		{
			"name":"Plane.093",
			"primitives":[
				{
					"attributes":{
						"POSITION":32,
						"NORMAL":33,
						"TEXCOORD_0":34
					},
					"indices":35,
					"material":2
				}
			]
		},
		{
			"name":"Plane.096",
			"primitives":[
				{
					"attributes":{
						"POSITION":36,
						"NORMAL":37,
						"TEXCOORD_0":38
					},
					"indices":39,
					"material":2
				}
			]
		},
		{
			"name":"Plane.094",
			"primitives":[
				{
					"attributes":{
						"POSITION":40,
						"NORMAL":41,
						"TEXCOORD_0":42
					},
					"indices":43,
					"material":2
				}
			]
		},
		{
			"name":"Plane.095",
			"primitives":[
				{
					"attributes":{
						"POSITION":44,
						"NORMAL":45,
						"TEXCOORD_0":46
					},
					"indices":47,
					"material":2
				}
			]
		},
		{
			"name":"Circle.004",
			"primitives":[
				{
					"attributes":{
						"POSITION":48,
						"NORMAL":49,
						"TEXCOORD_0":50
					},
					"indices":31,
					"material":3
				}
			]
		},
		{
			"name":"Plane.097",
			"primitives":[
				{
					"attributes":{
						"POSITION":51,
						"NORMAL":52,
						"TEXCOORD_0":53
					},
					"indices":15,
					"material":2
				}
			]
		},
		{
			"name":"Plane.100",
			"primitives":[
				{
					"attributes":{
						"POSITION":54,
						"NORMAL":55,
						"TEXCOORD_0":56
					},
					"indices":57,
					"material":2
				}
			]
		},
		{
			"name":"Plane.098",
			"primitives":[
				{
					"attributes":{
						"POSITION":58,
						"NORMAL":59,
						"TEXCOORD_0":60
					},
					"indices":47,
					"material":2
				}
			]
		},
		{
			"name":"Plane.099",
			"primitives":[
				{
					"attributes":{
						"POSITION":61,
						"NORMAL":62,
						"TEXCOORD_0":63
					},
					"indices":64,
					"material":2
				}
			]
		},
		{
			"name":"Circle.005",
			"primitives":[
				{
					"attributes":{
						"POSITION":65,
						"NORMAL":66,
						"TEXCOORD_0":67
					},
					"indices":31,
					"material":3
				}
			]
		},
		{
			"name":"Plane.088",
			"primitives":[
				{
					"attributes":{
						"POSITION":68,
						"NORMAL":69,
						"TEXCOORD_0":70
					},
					"indices":11,
					"material":4
				}
			]
		}
	],
	"textures":[
		{
			"sampler":0,
			"source":0
		},
		{
			"sampler":0,
			"source":1
		},
		{
			"sampler":0,
			"source":2
		}
	],
	"images":[
		{
			"mimeType":"image/png",
			"name":"carrotleaf_UV",
			"uri":"carrotleaf_UV.png"
		},
		{
			"mimeType":"image/png",
			"name":"carrot_jung",
			"uri":"carrot_jung.png"
		},
		{
			"mimeType":"image/png",
			"name":"field",
			"uri":"field.png"
		}
	],
	"accessors":[
		{
			"bufferView":0,
			"componentType":5126,
			"count":20,
			"max":[
				0.5,
				0.10000000149011612,
				0.5
			],
			"min":[
				-0.5,
				0,
				-0.5
			],
			"type":"VEC3"
		},
		{
			"bufferView":1,
			"componentType":5126,
			"count":20,
			"type":"VEC3"
		},
		{
			"bufferView":2,
			"componentType":5126,
			"count":20,
			"type":"VEC2"
		},
		{
			"bufferView":3,
			"componentType":5123,
			"count":30,
			"type":"SCALAR"
		},
		{
			"bufferView":4,
			"componentType":5126,
			"count":20,
			"max":[
				0.5,
				0.20000000298023224,
				0.5
			],
			"min":[
				-0.5,
				0.10000000149011612,
				-0.5
			],
			"type":"VEC3"
		},
		{
			"bufferView":5,
			"componentType":5126,
			"count":20,
			"type":"VEC3"
		},
		{
			"bufferView":6,
			"componentType":5126,
			"count":20,
			"type":"VEC2"
		},
		{
			"bufferView":7,
			"componentType":5123,
			"count":30,
			"type":"SCALAR"
		},
		{
			"bufferView":8,
			"componentType":5126,
			"count":4,
			"max":[
				1,
				0,
				1
			],
			"min":[
				-1,
				0,
				-1
			],
			"type":"VEC3"
		},
		{
			"bufferView":9,
			"componentType":5126,
			"count":4,
			"type":"VEC3"
		},
		{
			"bufferView":10,
			"componentType":5126,
			"count":4,
			"type":"VEC2"
		},
		{
			"bufferView":11,
			"componentType":5123,
			"count":6,
			"type":"SCALAR"
		},
		{
			"bufferView":12,
			"componentType":5126,
			"count":24,
			"max":[
				0.015107698738574982,
				0.0837039053440094,
				-0.009162742644548416
			],
			"min":[
				-0.026282668113708496,
				0.04595983400940895,
				-0.049632780253887177
			],
			"type":"VEC3"
		},
		{
			"bufferView":13,
			"componentType":5126,
			"count":24,
			"type":"VEC3"
		},
		{
			"bufferView":14,
			"componentType":5126,
			"count":24,
			"type":"VEC2"
		},
		{
			"bufferView":15,
			"componentType":5123,
			"count":36,
			"type":"SCALAR"
		},
		{
			"bufferView":16,
			"componentType":5126,
			"count":24,
			"max":[
				7.384084165096283e-05,
				0.016159042716026306,
				-0.0035106847062706947
			],
			"min":[
				-0.022847361862659454,
				0.0021783113479614258,
				-0.025252308696508408
			],
			"type":"VEC3"
		},
		{
			"bufferView":17,
			"componentType":5126,
			"count":24,
			"type":"VEC3"
		},
		{
			"bufferView":18,
			"componentType":5126,
			"count":24,
			"type":"VEC2"
		},
		{
			"bufferView":19,
			"componentType":5123,
			"count":36,
			"type":"SCALAR"
		},
		{
			"bufferView":20,
			"componentType":5126,
			"count":24,
			"max":[
				-0.018628712743520737,
				0.04388627037405968,
				0.016455302014946938
			],
			"min":[
				-0.04718826338648796,
				0.026181060820817947,
				-0.01300229225307703
			],
			"type":"VEC3"
		},
		{
			"bufferView":21,
			"componentType":5126,
			"count":24,
			"type":"VEC3"
		},
		{
			"bufferView":22,
			"componentType":5126,
			"count":24,
			"type":"VEC2"
		},
		{
			"bufferView":23,
			"componentType":5123,
			"count":36,
			"type":"SCALAR"
		},
		{
			"bufferView":24,
			"componentType":5126,
			"count":24,
			"max":[
				-0.024181043729186058,
				0.07200418412685394,
				-0.018504243344068527
			],
			"min":[
				-0.07340759038925171,
				0.03872479870915413,
				-0.06623384356498718
			],
			"type":"VEC3"
		},
		{
			"bufferView":25,
			"componentType":5126,
			"count":24,
			"type":"VEC3"
		},
		{
			"bufferView":26,
			"componentType":5126,
			"count":24,
			"type":"VEC2"
		},
		{
			"bufferView":27,
			"componentType":5123,
			"count":36,
			"type":"SCALAR"
		},
		{
			"bufferView":28,
			"componentType":5126,
			"count":70,
			"max":[
				-0.011456168256700039,
				0.049284279346466064,
				-0.004884618334472179
			],
			"min":[
				-0.040487952530384064,
				-0.005105573683977127,
				-0.03634779900312424
			],
			"type":"VEC3"
		},
		{
			"bufferView":29,
			"componentType":5126,
			"count":70,
			"type":"VEC3"
		},
		{
			"bufferView":30,
			"componentType":5126,
			"count":70,
			"type":"VEC2"
		},
		{
			"bufferView":31,
			"componentType":5123,
			"count":234,
			"type":"SCALAR"
		},
		{
			"bufferView":32,
			"componentType":5126,
			"count":24,
			"max":[
				0.039512235671281815,
				0.07261662930250168,
				0.005902438424527645
			],
			"min":[
				0.00565047562122345,
				0.040026936680078506,
				-0.028324689716100693
			],
			"type":"VEC3"
		},
		{
			"bufferView":33,
			"componentType":5126,
			"count":24,
			"type":"VEC3"
		},
		{
			"bufferView":34,
			"componentType":5126,
			"count":24,
			"type":"VEC2"
		},
		{
			"bufferView":35,
			"componentType":5123,
			"count":36,
			"type":"SCALAR"
		},
		{
			"bufferView":36,
			"componentType":5126,
			"count":24,
			"max":[
				0.021677261218428612,
				0.014295784756541252,
				-0.009440567344427109
			],
			"min":[
				0.001269601285457611,
				0.002224281430244446,
				-0.029569340869784355
			],
			"type":"VEC3"
		},
		{
			"bufferView":37,
			"componentType":5126,
			"count":24,
			"type":"VEC3"
		},
		{
			"bufferView":38,
			"componentType":5126,
			"count":24,
			"type":"VEC2"
		},
		{
			"bufferView":39,
			"componentType":5123,
			"count":36,
			"type":"SCALAR"
		},
		{
			"bufferView":40,
			"componentType":5126,
			"count":24,
			"max":[
				0.015373529866337776,
				0.03823653608560562,
				-0.02858734503388405
			],
			"min":[
				-0.009249776601791382,
				0.022949183359742165,
				-0.0537114217877388
			],
			"type":"VEC3"
		},
		{
			"bufferView":41,
			"componentType":5126,
			"count":24,
			"type":"VEC3"
		},
		{
			"bufferView":42,
			"componentType":5126,
			"count":24,
			"type":"VEC2"
		},
		{
			"bufferView":43,
			"componentType":5123,
			"count":36,
			"type":"SCALAR"
		},
		{
			"bufferView":44,
			"componentType":5126,
			"count":24,
			"max":[
				0.06447014212608337,
				0.06251464784145355,
				-0.023550977930426598
			],
			"min":[
				0.022415097802877426,
				0.033779941499233246,
				-0.06467977911233902
			],
			"type":"VEC3"
		},
		{
			"bufferView":45,
			"componentType":5126,
			"count":24,
			"type":"VEC3"
		},
		{
			"bufferView":46,
			"componentType":5126,
			"count":24,
			"type":"VEC2"
		},
		{
			"bufferView":47,
			"componentType":5123,
			"count":36,
			"type":"SCALAR"
		},
		{
			"bufferView":48,
			"componentType":5126,
			"count":70,
			"max":[
				0.03639844432473183,
				0.04289739951491356,
				-0.017532698810100555
			],
			"min":[
				0.007314985617995262,
				-0.004064904525876045,
				-0.038706693798303604
			],
			"type":"VEC3"
		},
		{
			"bufferView":49,
			"componentType":5126,
			"count":70,
			"type":"VEC3"
		},
		{
			"bufferView":50,
			"componentType":5126,
			"count":70,
			"type":"VEC2"
		},
		{
			"bufferView":51,
			"componentType":5126,
			"count":24,
			"max":[
				0.0074016619473695755,
				0.08370391279459,
				0.04261801019310951
			],
			"min":[
				-0.030824558809399605,
				0.045959826558828354,
				0.004619613289833069
			],
			"type":"VEC3"
		},
		{
			"bufferView":52,
			"componentType":5126,
			"count":24,
			"type":"VEC3"
		},
		{
			"bufferView":53,
			"componentType":5126,
			"count":24,
			"type":"VEC2"
		},
		{
			"bufferView":54,
			"componentType":5126,
			"count":24,
			"max":[
				0.010652655735611916,
				0.016159046441316605,
				0.02375876158475876
			],
			"min":[
				-0.012362928129732609,
				0.002178310416638851,
				-0.00013964995741844177
			],
			"type":"VEC3"
		},
		{
			"bufferView":55,
			"componentType":5126,
			"count":24,
			"type":"VEC3"
		},
		{
			"bufferView":56,
			"componentType":5126,
			"count":24,
			"type":"VEC2"
		},
		{
			"bufferView":57,
			"componentType":5123,
			"count":36,
			"type":"SCALAR"
		},
		{
			"bufferView":58,
			"componentType":5126,
			"count":24,
			"max":[
				0.039443787187337875,
				0.04388625547289848,
				0.018461376428604126
			],
			"min":[
				0.010697683319449425,
				0.02618105337023735,
				-0.00915907509624958
			],
			"type":"VEC3"
		},
		{
			"bufferView":59,
			"componentType":5126,
			"count":24,
			"type":"VEC3"
		},
		{
			"bufferView":60,
			"componentType":5126,
			"count":24,
			"type":"VEC2"
		},
		{
			"bufferView":61,
			"componentType":5126,
			"count":24,
			"max":[
				0.0468137301504612,
				0.07200420647859573,
				0.07560732215642929
			],
			"min":[
				0.0006873421370983124,
				0.038724809885025024,
				0.027460727840662003
			],
			"type":"VEC3"
		},
		{
			"bufferView":62,
			"componentType":5126,
			"count":24,
			"type":"VEC3"
		},
		{
			"bufferView":63,
			"componentType":5126,
			"count":24,
			"type":"VEC2"
		},
		{
			"bufferView":64,
			"componentType":5123,
			"count":36,
			"type":"SCALAR"
		},
		{
			"bufferView":65,
			"componentType":5126,
			"count":70,
			"max":[
				0.018374983221292496,
				0.04928428679704666,
				0.04272617772221565
			],
			"min":[
				-0.00398234324529767,
				-0.005105571821331978,
				0.00884826760739088
			],
			"type":"VEC3"
		},
		{
			"bufferView":66,
			"componentType":5126,
			"count":70,
			"type":"VEC3"
		},
		{
			"bufferView":67,
			"componentType":5126,
			"count":70,
			"type":"VEC2"
		},
		{
			"bufferView":68,
			"componentType":5126,
			"count":4,
			"max":[
				0.08071233332157135,
				0,
				0.08002486079931259
			],
			"min":[
				-0.07933737337589264,
				0,
				-0.08002486079931259
			],
			"type":"VEC3"
		},
		{
			"bufferView":69,
			"componentType":5126,
			"count":4,
			"type":"VEC3"
		},
		{
			"bufferView":70,
			"componentType":5126,
			"count":4,
			"type":"VEC2"
		}
	],
	"bufferViews":[
		{
			"buffer":0,
			"byteLength":240,
			"byteOffset":0,
			"target":34962
		},
		{
			"buffer":0,
			"byteLength":240,
			"byteOffset":240,
			"target":34962
		},
		{
			"buffer":0,
			"byteLength":160,
			"byteOffset":480,
			"target":34962
		},
		{
			"buffer":0,
			"byteLength":60,
			"byteOffset":640,
			"target":34963
		},
		{
			"buffer":0,
			"byteLength":240,
			"byteOffset":700,
			"target":34962
		},
		{
			"buffer":0,
			"byteLength":240,
			"byteOffset":940,
			"target":34962
		},
		{
			"buffer":0,
			"byteLength":160,
			"byteOffset":1180,
			"target":34962
		},
		{
			"buffer":0,
			"byteLength":60,
			"byteOffset":1340,
			"target":34963
		},
		{
			"buffer":0,
			"byteLength":48,
			"byteOffset":1400,
			"target":34962
		},
		{
			"buffer":0,
			"byteLength":48,
			"byteOffset":1448,
			"target":34962
		},
		{
			"buffer":0,
			"byteLength":32,
			"byteOffset":1496,
			"target":34962
		},
		{
			"buffer":0,
			"byteLength":12,
			"byteOffset":1528,
			"target":34963
		},
		{
			"buffer":0,
			"byteLength":288,
			"byteOffset":1540,
			"target":34962
		},
		{
			"buffer":0,
			"byteLength":288,
			"byteOffset":1828,
			"target":34962
		},
		{
			"buffer":0,
			"byteLength":192,
			"byteOffset":2116,
			"target":34962
		},
		{
			"buffer":0,
			"byteLength":72,
			"byteOffset":2308,
			"target":34963
		},
		{
			"buffer":0,
			"byteLength":288,
			"byteOffset":2380,
			"target":34962
		},
		{
			"buffer":0,
			"byteLength":288,
			"byteOffset":2668,
			"target":34962
		},
		{
			"buffer":0,
			"byteLength":192,
			"byteOffset":2956,
			"target":34962
		},
		{
			"buffer":0,
			"byteLength":72,
			"byteOffset":3148,
			"target":34963
		},
		{
			"buffer":0,
			"byteLength":288,
			"byteOffset":3220,
			"target":34962
		},
		{
			"buffer":0,
			"byteLength":288,
			"byteOffset":3508,
			"target":34962
		},
		{
			"buffer":0,
			"byteLength":192,
			"byteOffset":3796,
			"target":34962
		},
		{
			"buffer":0,
			"byteLength":72,
			"byteOffset":3988,
			"target":34963
		},
		{
			"buffer":0,
			"byteLength":288,
			"byteOffset":4060,
			"target":34962
		},
		{
			"buffer":0,
			"byteLength":288,
			"byteOffset":4348,
			"target":34962
		},
		{
			"buffer":0,
			"byteLength":192,
			"byteOffset":4636,
			"target":34962
		},
		{
			"buffer":0,
			"byteLength":72,
			"byteOffset":4828,
			"target":34963
		},
		{
			"buffer":0,
			"byteLength":840,
			"byteOffset":4900,
			"target":34962
		},
		{
			"buffer":0,
			"byteLength":840,
			"byteOffset":5740,
			"target":34962
		},
		{
			"buffer":0,
			"byteLength":560,
			"byteOffset":6580,
			"target":34962
		},
		{
			"buffer":0,
			"byteLength":468,
			"byteOffset":7140,
			"target":34963
		},
		{
			"buffer":0,
			"byteLength":288,
			"byteOffset":7608,
			"target":34962
		},
		{
			"buffer":0,
			"byteLength":288,
			"byteOffset":7896,
			"target":34962
		},
		{
			"buffer":0,
			"byteLength":192,
			"byteOffset":8184,
			"target":34962
		},
		{
			"buffer":0,
			"byteLength":72,
			"byteOffset":8376,
			"target":34963
		},
		{
			"buffer":0,
			"byteLength":288,
			"byteOffset":8448,
			"target":34962
		},
		{
			"buffer":0,
			"byteLength":288,
			"byteOffset":8736,
			"target":34962
		},
		{
			"buffer":0,
			"byteLength":192,
			"byteOffset":9024,
			"target":34962
		},
		{
			"buffer":0,
			"byteLength":72,
			"byteOffset":9216,
			"target":34963
		},
		{
			"buffer":0,
			"byteLength":288,
			"byteOffset":9288,
			"target":34962
		},
		{
			"buffer":0,
			"byteLength":288,
			"byteOffset":9576,
			"target":34962
		},
		{
			"buffer":0,
			"byteLength":192,
			"byteOffset":9864,
			"target":34962
		},
		{
			"buffer":0,
			"byteLength":72,
			"byteOffset":10056,
			"target":34963
		},
		{
			"buffer":0,
			"byteLength":288,
			"byteOffset":10128,
			"target":34962
		},
		{
			"buffer":0,
			"byteLength":288,
			"byteOffset":10416,
			"target":34962
		},
		{
			"buffer":0,
			"byteLength":192,
			"byteOffset":10704,
			"target":34962
		},
		{
			"buffer":0,
			"byteLength":72,
			"byteOffset":10896,
			"target":34963
		},
		{
			"buffer":0,
			"byteLength":840,
			"byteOffset":10968,
			"target":34962
		},
		{
			"buffer":0,
			"byteLength":840,
			"byteOffset":11808,
			"target":34962
		},
		{
			"buffer":0,
			"byteLength":560,
			"byteOffset":12648,
			"target":34962
		},
		{
			"buffer":0,
			"byteLength":288,
			"byteOffset":13208,
			"target":34962
		},
		{
			"buffer":0,
			"byteLength":288,
			"byteOffset":13496,
			"target":34962
		},
		{
			"buffer":0,
			"byteLength":192,
			"byteOffset":13784,
			"target":34962
		},
		{
			"buffer":0,
			"byteLength":288,
			"byteOffset":13976,
			"target":34962
		},
		{
			"buffer":0,
			"byteLength":288,
			"byteOffset":14264,
			"target":34962
		},
		{
			"buffer":0,
			"byteLength":192,
			"byteOffset":14552,
			"target":34962
		},
		{
			"buffer":0,
			"byteLength":72,
			"byteOffset":14744,
			"target":34963
		},
		{
			"buffer":0,
			"byteLength":288,
			"byteOffset":14816,
			"target":34962
		},
		{
			"buffer":0,
			"byteLength":288,
			"byteOffset":15104,
			"target":34962
		},
		{
			"buffer":0,
			"byteLength":192,
			"byteOffset":15392,
			"target":34962
		},
		{
			"buffer":0,
			"byteLength":288,
			"byteOffset":15584,
			"target":34962
		},
		{
			"buffer":0,
			"byteLength":288,
			"byteOffset":15872,
			"target":34962
		},
		{
			"buffer":0,
			"byteLength":192,
			"byteOffset":16160,
			"target":34962
		},
		{
			"buffer":0,
			"byteLength":72,
			"byteOffset":16352,
			"target":34963
		},
		{
			"buffer":0,
			"byteLength":840,
			"byteOffset":16424,
			"target":34962
		},
		{
			"buffer":0,
			"byteLength":840,
			"byteOffset":17264,
			"target":34962
		},
		{
			"buffer":0,
			"byteLength":560,
			"byteOffset":18104,
			"target":34962
		},
		{
			"buffer":0,
			"byteLength":48,
			"byteOffset":18664,
			"target":34962
		},
		{
			"buffer":0,
			"byteLength":48,
			"byteOffset":18712,
			"target":34962
		},
		{
			"buffer":0,
			"byteLength":32,
			"byteOffset":18760,
			"target":34962
		}
	],
	"samplers":[
		{
			"magFilter":9729,
			"minFilter":9987
		}
	],
	"buffers":[
		{
			"byteLength":18792,
			"uri":"carrotCOL.bin"
		}
	]
}
