{
	"asset":{
		"generator":"Khronos glTF Blender I/O v4.2.57",
		"version":"2.0"
	},
	"scene":0,
	"scenes":[
		{
			"name":"Scene",
			"nodes":[
				2,
				3
			]
		}
	],
	"nodes":[
		{
			"mesh":0,
			"name":"tree",
			"scale":[
				0.5,
				0.5,
				0.5
			],
			"translation":[
				0,
				0.20000000298023224,
				0
			]
		},
		{
			"children":[
				0
			],
			"mesh":1,
			"name":"tile_tree"
		},
		{
			"children":[
				1
			],
			"name":"tmpParent"
		},
		{
			"mesh":2,
			"name":"COL",
			"scale":[
				0.4574759006500244,
				0.5938039422035217,
				0.4574759006500244
			],
			"translation":[
				0,
				0.528294563293457,
				0
			]
		}
	],
	"materials":[
		{
			"name":"foliage",
			"pbrMetallicRoughness":{
				"baseColorFactor":[
					0.2666666805744171,
					0.7098039388656616,
					0.5529412031173706,
					1
				]
			}
		},
		{
			"name":"wood",
			"pbrMetallicRoughness":{
				"baseColorFactor":[
					0.8784313797950745,
					0.5333333611488342,
					0.3607843220233917,
					1
				]
			}
		},
		{
			"name":"dirt",
			"pbrMetallicRoughness":{
				"baseColorFactor":[
					0.9764705896377563,
					0.7137255072593689,
					0.45098039507865906,
					1
				]
			}
		}
	],
	"meshes":[
		{
			"name":"Mesh tree",
			"primitives":[
				{
					"attributes":{
						"POSITION":0,
						"NORMAL":1,
						"TEXCOORD_0":2
					},
					"indices":3,
					"material":0
				},
				{
					"attributes":{
						"POSITION":4,
						"NORMAL":5,
						"TEXCOORD_0":6
					},
					"indices":7,
					"material":1
				}
			]
		},
		{
			"name":"Mesh tile_tree",
			"primitives":[
				{
					"attributes":{
						"POSITION":8,
						"NORMAL":9,
						"TEXCOORD_0":10
					},
					"indices":7,
					"material":2
				},
				{
					"attributes":{
						"POSITION":11,
						"NORMAL":12,
						"TEXCOORD_0":13
					},
					"indices":14,
					"material":0
				}
			]
		},
		{
			"name":"\u5186\u9310",
			"primitives":[
				{
					"attributes":{
						"POSITION":15,
						"NORMAL":16,
						"TEXCOORD_0":17
					},
					"indices":18
				}
			]
		}
	],
	"accessors":[
		{
			"bufferView":0,
			"componentType":5126,
			"count":164,
			"max":[
				0.5,
				1.5199999809265137,
				0.5
			],
			"min":[
				-0.5,
				0.30000001192092896,
				-0.5
			],
			"type":"VEC3"
		},
		{
			"bufferView":1,
			"componentType":5126,
			"count":164,
			"type":"VEC3"
		},
		{
			"bufferView":2,
			"componentType":5126,
			"count":164,
			"type":"VEC2"
		},
		{
			"bufferView":3,
			"componentType":5123,
			"count":294,
			"type":"SCALAR"
		},
		{
			"bufferView":4,
			"componentType":5126,
			"count":20,
			"max":[
				0.125,
				0.30000001192092896,
				0.125
			],
			"min":[
				-0.125,
				0,
				-0.125
			],
			"type":"VEC3"
		},
		{
			"bufferView":5,
			"componentType":5126,
			"count":20,
			"type":"VEC3"
		},
		{
			"bufferView":6,
			"componentType":5126,
			"count":20,
			"type":"VEC2"
		},
		{
			"bufferView":7,
			"componentType":5123,
			"count":30,
			"type":"SCALAR"
		},
		{
			"bufferView":8,
			"componentType":5126,
			"count":20,
			"max":[
				0.5,
				0.10000000149011612,
				0.5
			],
			"min":[
				-0.5,
				0,
				-0.5
			],
			"type":"VEC3"
		},
		{
			"bufferView":9,
			"componentType":5126,
			"count":20,
			"type":"VEC3"
		},
		{
			"bufferView":10,
			"componentType":5126,
			"count":20,
			"type":"VEC2"
		},
		{
			"bufferView":11,
			"componentType":5126,
			"count":20,
			"max":[
				0.5,
				0.20000000298023224,
				0.5
			],
			"min":[
				-0.5,
				0.10000000149011612,
				-0.5
			],
			"type":"VEC3"
		},
		{
			"bufferView":12,
			"componentType":5126,
			"count":20,
			"type":"VEC3"
		},
		{
			"bufferView":13,
			"componentType":5126,
			"count":20,
			"type":"VEC2"
		},
		{
			"bufferView":14,
			"componentType":5123,
			"count":30,
			"type":"SCALAR"
		},
		{
			"bufferView":15,
			"componentType":5126,
			"count":96,
			"max":[
				1,
				1,
				1
			],
			"min":[
				-1,
				-1,
				-1
			],
			"type":"VEC3"
		},
		{
			"bufferView":16,
			"componentType":5126,
			"count":96,
			"type":"VEC3"
		},
		{
			"bufferView":17,
			"componentType":5126,
			"count":96,
			"type":"VEC2"
		},
		{
			"bufferView":18,
			"componentType":5123,
			"count":96,
			"type":"SCALAR"
		}
	],
	"bufferViews":[
		{
			"buffer":0,
			"byteLength":1968,
			"byteOffset":0,
			"target":34962
		},
		{
			"buffer":0,
			"byteLength":1968,
			"byteOffset":1968,
			"target":34962
		},
		{
			"buffer":0,
			"byteLength":1312,
			"byteOffset":3936,
			"target":34962
		},
		{
			"buffer":0,
			"byteLength":588,
			"byteOffset":5248,
			"target":34963
		},
		{
			"buffer":0,
			"byteLength":240,
			"byteOffset":5836,
			"target":34962
		},
		{
			"buffer":0,
			"byteLength":240,
			"byteOffset":6076,
			"target":34962
		},
		{
			"buffer":0,
			"byteLength":160,
			"byteOffset":6316,
			"target":34962
		},
		{
			"buffer":0,
			"byteLength":60,
			"byteOffset":6476,
			"target":34963
		},
		{
			"buffer":0,
			"byteLength":240,
			"byteOffset":6536,
			"target":34962
		},
		{
			"buffer":0,
			"byteLength":240,
			"byteOffset":6776,
			"target":34962
		},
		{
			"buffer":0,
			"byteLength":160,
			"byteOffset":7016,
			"target":34962
		},
		{
			"buffer":0,
			"byteLength":240,
			"byteOffset":7176,
			"target":34962
		},
		{
			"buffer":0,
			"byteLength":240,
			"byteOffset":7416,
			"target":34962
		},
		{
			"buffer":0,
			"byteLength":160,
			"byteOffset":7656,
			"target":34962
		},
		{
			"buffer":0,
			"byteLength":60,
			"byteOffset":7816,
			"target":34963
		},
		{
			"buffer":0,
			"byteLength":1152,
			"byteOffset":7876,
			"target":34962
		},
		{
			"buffer":0,
			"byteLength":1152,
			"byteOffset":9028,
			"target":34962
		},
		{
			"buffer":0,
			"byteLength":768,
			"byteOffset":10180,
			"target":34962
		},
		{
			"buffer":0,
			"byteLength":192,
			"byteOffset":10948,
			"target":34963
		}
	],
	"buffers":[
		{
			"byteLength":11140,
			"uri":"terrain_treeCOL.bin"
		}
	]
}
