{
	"asset":{
		"generator":"Khronos glTF Blender I/O v4.2.57",
		"version":"2.0"
	},
	"scene":0,
	"scenes":[
		{
			"name":"Scene",
			"nodes":[
				0,
				4,
				5,
				6
			]
		}
	],
	"nodes":[
		{
			"name":"tmpParent"
		},
		{
			"mesh":0,
			"name":"tree",
			"scale":[
				0.5,
				0.5,
				0.5
			],
			"translation":[
				-0.25,
				0.20000000298023224,
				0.25
			]
		},
		{
			"mesh":1,
			"name":"tree.001",
			"scale":[
				0.5,
				0.5,
				0.5
			],
			"translation":[
				0.25,
				0.20000000298023224,
				-0.25
			]
		},
		{
			"children":[
				1,
				2
			],
			"mesh":2,
			"name":"tile_treeDouble"
		},
		{
			"children":[
				3
			],
			"name":"tmpParent.001"
		},
		{
			"mesh":3,
			"name":"COL",
			"scale":[
				0.42400428652763367,
				0.42400428652763367,
				0.42400428652763367
			],
			"translation":[
				0.25781264901161194,
				0.6195112466812134,
				-0.24963533878326416
			]
		},
		{
			"mesh":4,
			"name":"COL1",
			"scale":[
				0.42400428652763367,
				0.42400428652763367,
				0.42400428652763367
			],
			"translation":[
				-0.25143879652023315,
				0.6195112466812134,
				0.2562306821346283
			]
		}
	],
	"materials":[
		{
			"name":"foliage.002",
			"pbrMetallicRoughness":{
				"baseColorFactor":[
					0.2666666805744171,
					0.7098039388656616,
					0.5529412031173706,
					1
				]
			}
		},
		{
			"name":"wood.001",
			"pbrMetallicRoughness":{
				"baseColorFactor":[
					0.8784313797950745,
					0.5333333611488342,
					0.3607843220233917,
					1
				]
			}
		},
		{
			"name":"dirt.002",
			"pbrMetallicRoughness":{
				"baseColorFactor":[
					0.9764705896377563,
					0.7137255072593689,
					0.45098039507865906,
					1
				]
			}
		}
	],
	"meshes":[
		{
			"name":"Mesh tree.001",
			"primitives":[
				{
					"attributes":{
						"POSITION":0,
						"NORMAL":1,
						"TEXCOORD_0":2
					},
					"indices":3,
					"material":0
				},
				{
					"attributes":{
						"POSITION":4,
						"NORMAL":5,
						"TEXCOORD_0":6
					},
					"indices":7,
					"material":1
				}
			]
		},
		{
			"name":"Mesh tree.002",
			"primitives":[
				{
					"attributes":{
						"POSITION":8,
						"NORMAL":9,
						"TEXCOORD_0":10
					},
					"indices":3,
					"material":0
				},
				{
					"attributes":{
						"POSITION":11,
						"NORMAL":12,
						"TEXCOORD_0":13
					},
					"indices":7,
					"material":1
				}
			]
		},
		{
			"name":"Mesh tile_treeDouble",
			"primitives":[
				{
					"attributes":{
						"POSITION":14,
						"NORMAL":15,
						"TEXCOORD_0":16
					},
					"indices":7,
					"material":2
				},
				{
					"attributes":{
						"POSITION":17,
						"NORMAL":18,
						"TEXCOORD_0":19
					},
					"indices":20,
					"material":0
				}
			]
		},
		{
			"name":"\u5186\u9310",
			"primitives":[
				{
					"attributes":{
						"POSITION":21,
						"NORMAL":22,
						"TEXCOORD_0":23
					},
					"indices":24
				}
			]
		},
		{
			"name":"\u5186\u9310.001",
			"primitives":[
				{
					"attributes":{
						"POSITION":25,
						"NORMAL":26,
						"TEXCOORD_0":27
					},
					"indices":24
				}
			]
		}
	],
	"accessors":[
		{
			"bufferView":0,
			"componentType":5126,
			"count":164,
			"max":[
				0.5,
				1.5199999809265137,
				0.5
			],
			"min":[
				-0.5,
				0.30000001192092896,
				-0.5
			],
			"type":"VEC3"
		},
		{
			"bufferView":1,
			"componentType":5126,
			"count":164,
			"type":"VEC3"
		},
		{
			"bufferView":2,
			"componentType":5126,
			"count":164,
			"type":"VEC2"
		},
		{
			"bufferView":3,
			"componentType":5123,
			"count":294,
			"type":"SCALAR"
		},
		{
			"bufferView":4,
			"componentType":5126,
			"count":20,
			"max":[
				0.125,
				0.30000001192092896,
				0.125
			],
			"min":[
				-0.125,
				0,
				-0.125
			],
			"type":"VEC3"
		},
		{
			"bufferView":5,
			"componentType":5126,
			"count":20,
			"type":"VEC3"
		},
		{
			"bufferView":6,
			"componentType":5126,
			"count":20,
			"type":"VEC2"
		},
		{
			"bufferView":7,
			"componentType":5123,
			"count":30,
			"type":"SCALAR"
		},
		{
			"bufferView":8,
			"componentType":5126,
			"count":164,
			"max":[
				0.5,
				1.5199999809265137,
				0.5
			],
			"min":[
				-0.5,
				0.30000001192092896,
				-0.5
			],
			"type":"VEC3"
		},
		{
			"bufferView":9,
			"componentType":5126,
			"count":164,
			"type":"VEC3"
		},
		{
			"bufferView":10,
			"componentType":5126,
			"count":164,
			"type":"VEC2"
		},
		{
			"bufferView":11,
			"componentType":5126,
			"count":20,
			"max":[
				0.125,
				0.30000001192092896,
				0.125
			],
			"min":[
				-0.125,
				0,
				-0.125
			],
			"type":"VEC3"
		},
		{
			"bufferView":12,
			"componentType":5126,
			"count":20,
			"type":"VEC3"
		},
		{
			"bufferView":13,
			"componentType":5126,
			"count":20,
			"type":"VEC2"
		},
		{
			"bufferView":14,
			"componentType":5126,
			"count":20,
			"max":[
				0.5,
				0.10000000149011612,
				0.5
			],
			"min":[
				-0.5,
				0,
				-0.5
			],
			"type":"VEC3"
		},
		{
			"bufferView":15,
			"componentType":5126,
			"count":20,
			"type":"VEC3"
		},
		{
			"bufferView":16,
			"componentType":5126,
			"count":20,
			"type":"VEC2"
		},
		{
			"bufferView":17,
			"componentType":5126,
			"count":20,
			"max":[
				0.5,
				0.20000000298023224,
				0.5
			],
			"min":[
				-0.5,
				0.10000000149011612,
				-0.5
			],
			"type":"VEC3"
		},
		{
			"bufferView":18,
			"componentType":5126,
			"count":20,
			"type":"VEC3"
		},
		{
			"bufferView":19,
			"componentType":5126,
			"count":20,
			"type":"VEC2"
		},
		{
			"bufferView":20,
			"componentType":5123,
			"count":30,
			"type":"SCALAR"
		},
		{
			"bufferView":21,
			"componentType":5126,
			"count":96,
			"max":[
				1,
				1,
				1
			],
			"min":[
				-1,
				-1,
				-1
			],
			"type":"VEC3"
		},
		{
			"bufferView":22,
			"componentType":5126,
			"count":96,
			"type":"VEC3"
		},
		{
			"bufferView":23,
			"componentType":5126,
			"count":96,
			"type":"VEC2"
		},
		{
			"bufferView":24,
			"componentType":5123,
			"count":96,
			"type":"SCALAR"
		},
		{
			"bufferView":25,
			"componentType":5126,
			"count":96,
			"max":[
				1,
				1,
				1
			],
			"min":[
				-1,
				-1,
				-1
			],
			"type":"VEC3"
		},
		{
			"bufferView":26,
			"componentType":5126,
			"count":96,
			"type":"VEC3"
		},
		{
			"bufferView":27,
			"componentType":5126,
			"count":96,
			"type":"VEC2"
		}
	],
	"bufferViews":[
		{
			"buffer":0,
			"byteLength":1968,
			"byteOffset":0,
			"target":34962
		},
		{
			"buffer":0,
			"byteLength":1968,
			"byteOffset":1968,
			"target":34962
		},
		{
			"buffer":0,
			"byteLength":1312,
			"byteOffset":3936,
			"target":34962
		},
		{
			"buffer":0,
			"byteLength":588,
			"byteOffset":5248,
			"target":34963
		},
		{
			"buffer":0,
			"byteLength":240,
			"byteOffset":5836,
			"target":34962
		},
		{
			"buffer":0,
			"byteLength":240,
			"byteOffset":6076,
			"target":34962
		},
		{
			"buffer":0,
			"byteLength":160,
			"byteOffset":6316,
			"target":34962
		},
		{
			"buffer":0,
			"byteLength":60,
			"byteOffset":6476,
			"target":34963
		},
		{
			"buffer":0,
			"byteLength":1968,
			"byteOffset":6536,
			"target":34962
		},
		{
			"buffer":0,
			"byteLength":1968,
			"byteOffset":8504,
			"target":34962
		},
		{
			"buffer":0,
			"byteLength":1312,
			"byteOffset":10472,
			"target":34962
		},
		{
			"buffer":0,
			"byteLength":240,
			"byteOffset":11784,
			"target":34962
		},
		{
			"buffer":0,
			"byteLength":240,
			"byteOffset":12024,
			"target":34962
		},
		{
			"buffer":0,
			"byteLength":160,
			"byteOffset":12264,
			"target":34962
		},
		{
			"buffer":0,
			"byteLength":240,
			"byteOffset":12424,
			"target":34962
		},
		{
			"buffer":0,
			"byteLength":240,
			"byteOffset":12664,
			"target":34962
		},
		{
			"buffer":0,
			"byteLength":160,
			"byteOffset":12904,
			"target":34962
		},
		{
			"buffer":0,
			"byteLength":240,
			"byteOffset":13064,
			"target":34962
		},
		{
			"buffer":0,
			"byteLength":240,
			"byteOffset":13304,
			"target":34962
		},
		{
			"buffer":0,
			"byteLength":160,
			"byteOffset":13544,
			"target":34962
		},
		{
			"buffer":0,
			"byteLength":60,
			"byteOffset":13704,
			"target":34963
		},
		{
			"buffer":0,
			"byteLength":1152,
			"byteOffset":13764,
			"target":34962
		},
		{
			"buffer":0,
			"byteLength":1152,
			"byteOffset":14916,
			"target":34962
		},
		{
			"buffer":0,
			"byteLength":768,
			"byteOffset":16068,
			"target":34962
		},
		{
			"buffer":0,
			"byteLength":192,
			"byteOffset":16836,
			"target":34963
		},
		{
			"buffer":0,
			"byteLength":1152,
			"byteOffset":17028,
			"target":34962
		},
		{
			"buffer":0,
			"byteLength":1152,
			"byteOffset":18180,
			"target":34962
		},
		{
			"buffer":0,
			"byteLength":768,
			"byteOffset":19332,
			"target":34962
		}
	],
	"buffers":[
		{
			"byteLength":20100,
			"uri":"terrain_tree1COL.bin"
		}
	]
}
