{
	"asset":{
		"generator":"Khronos glTF Blender I/O v4.2.57",
		"version":"2.0"
	},
	"scene":0,
	"scenes":[
		{
			"name":"Scene",
			"nodes":[
				1,
				2
			]
		}
	],
	"nodes":[
		{
			"mesh":0,
			"name":"tile",
			"translation":[
				0,
				-0.19942401349544525,
				0
			]
		},
		{
			"children":[
				0
			],
			"name":"tmpParent",
			"rotation":[
				0,
				0.7071068286895752,
				0,
				0.7071068286895752
			]
		},
		{
			"mesh":1,
			"name":"track",
			"rotation":[
				0,
				-0.7070568203926086,
				0,
				0.7071567177772522
			]
		}
	],
	"materials":[
		{
			"name":"dirt",
			"pbrMetallicRoughness":{
				"baseColorFactor":[
					0.9764705896377563,
					0.7137255072593689,
					0.45098039507865906,
					1
				]
			}
		},
		{
			"name":"foliage",
			"pbrMetallicRoughness":{
				"baseColorFactor":[
					0.2666666805744171,
					0.7098039388656616,
					0.5529412031173706,
					1
				]
			}
		},
		{
			"doubleSided":true,
			"name":"colormap",
			"pbrMetallicRoughness":{
				"baseColorTexture":{
					"index":0
				},
				"metallicFactor":0
			}
		}
	],
	"meshes":[
		{
			"name":"Mesh tile",
			"primitives":[
				{
					"attributes":{
						"POSITION":0,
						"NORMAL":1,
						"TEXCOORD_0":2
					},
					"indices":3,
					"material":0
				},
				{
					"attributes":{
						"POSITION":4,
						"NORMAL":5,
						"TEXCOORD_0":6
					},
					"indices":7,
					"material":1
				}
			]
		},
		{
			"name":"track",
			"primitives":[
				{
					"attributes":{
						"POSITION":8,
						"NORMAL":9,
						"TEXCOORD_0":10
					},
					"indices":11,
					"material":2
				}
			]
		}
	],
	"textures":[
		{
			"sampler":0,
			"source":0
		}
	],
	"images":[
		{
			"mimeType":"image/png",
			"name":"colormap",
			"uri":"colormap.png"
		}
	],
	"accessors":[
		{
			"bufferView":0,
			"componentType":5126,
			"count":20,
			"max":[
				0.5,
				0.10000000149011612,
				0.5
			],
			"min":[
				-0.5,
				0,
				-0.5
			],
			"type":"VEC3"
		},
		{
			"bufferView":1,
			"componentType":5126,
			"count":20,
			"type":"VEC3"
		},
		{
			"bufferView":2,
			"componentType":5126,
			"count":20,
			"type":"VEC2"
		},
		{
			"bufferView":3,
			"componentType":5123,
			"count":30,
			"type":"SCALAR"
		},
		{
			"bufferView":4,
			"componentType":5126,
			"count":20,
			"max":[
				0.5,
				0.20000000298023224,
				0.5
			],
			"min":[
				-0.5,
				0.10000000149011612,
				-0.5
			],
			"type":"VEC3"
		},
		{
			"bufferView":5,
			"componentType":5126,
			"count":20,
			"type":"VEC3"
		},
		{
			"bufferView":6,
			"componentType":5126,
			"count":20,
			"type":"VEC2"
		},
		{
			"bufferView":7,
			"componentType":5123,
			"count":30,
			"type":"SCALAR"
		},
		{
			"bufferView":8,
			"componentType":5126,
			"count":136,
			"max":[
				0.5,
				0.15000000596046448,
				0.5
			],
			"min":[
				-0.5,
				0,
				-0.5
			],
			"type":"VEC3"
		},
		{
			"bufferView":9,
			"componentType":5126,
			"count":136,
			"type":"VEC3"
		},
		{
			"bufferView":10,
			"componentType":5126,
			"count":136,
			"type":"VEC2"
		},
		{
			"bufferView":11,
			"componentType":5123,
			"count":228,
			"type":"SCALAR"
		}
	],
	"bufferViews":[
		{
			"buffer":0,
			"byteLength":240,
			"byteOffset":0,
			"target":34962
		},
		{
			"buffer":0,
			"byteLength":240,
			"byteOffset":240,
			"target":34962
		},
		{
			"buffer":0,
			"byteLength":160,
			"byteOffset":480,
			"target":34962
		},
		{
			"buffer":0,
			"byteLength":60,
			"byteOffset":640,
			"target":34963
		},
		{
			"buffer":0,
			"byteLength":240,
			"byteOffset":700,
			"target":34962
		},
		{
			"buffer":0,
			"byteLength":240,
			"byteOffset":940,
			"target":34962
		},
		{
			"buffer":0,
			"byteLength":160,
			"byteOffset":1180,
			"target":34962
		},
		{
			"buffer":0,
			"byteLength":60,
			"byteOffset":1340,
			"target":34963
		},
		{
			"buffer":0,
			"byteLength":1632,
			"byteOffset":1400,
			"target":34962
		},
		{
			"buffer":0,
			"byteLength":1632,
			"byteOffset":3032,
			"target":34962
		},
		{
			"buffer":0,
			"byteLength":1088,
			"byteOffset":4664,
			"target":34962
		},
		{
			"buffer":0,
			"byteLength":456,
			"byteOffset":5752,
			"target":34963
		}
	],
	"samplers":[
		{
			"magFilter":9728,
			"minFilter":9984
		}
	],
	"buffers":[
		{
			"byteLength":6208,
			"uri":"rail1.bin"
		}
	]
}
