{
	"asset":{
		"generator":"Khronos glTF Blender I/O v4.2.57",
		"version":"2.0"
	},
	"scene":0,
	"scenes":[
		{
			"name":"Scene",
			"nodes":[
				2,
				5,
				8,
				11,
				12
			]
		}
	],
	"nodes":[
		{
			"mesh":0,
			"name":"wheels-back",
			"translation":[
				0,
				0.35949936509132385,
				-0.4499998986721039
			]
		},
		{
			"mesh":1,
			"name":"wheels-front",
			"translation":[
				0,
				0.35949936509132385,
				0.44999960064888
			]
		},
		{
			"children":[
				0,
				1
			],
			"mesh":2,
			"name":"train-electric-city-a",
			"rotation":[
				0,
				0.7078987956047058,
				0,
				0.7063139081001282
			],
			"translation":[
				-1.4347420930862427,
				0,
				-0.00410616397857666
			]
		},
		{
			"mesh":3,
			"name":"wheels-back.001",
			"translation":[
				0,
				0.35949936509132385,
				-0.5999996066093445
			]
		},
		{
			"mesh":4,
			"name":"wheels-front.001",
			"translation":[
				0,
				0.35949936509132385,
				0.6000001430511475
			]
		},
		{
			"children":[
				3,
				4
			],
			"mesh":5,
			"name":"train-electric-city-c",
			"rotation":[
				0,
				0.7074878215789795,
				0,
				0.706725537776947
			],
			"translation":[
				-3.9863996505737305,
				0,
				-0.0013550519943237305
			]
		},
		{
			"mesh":6,
			"name":"wheels-back.002",
			"translation":[
				0,
				0.35949936509132385,
				-0.599998950958252
			]
		},
		{
			"mesh":7,
			"name":"wheels-front.002",
			"translation":[
				0,
				0.35949936509132385,
				0.6000003814697266
			]
		},
		{
			"children":[
				6,
				7
			],
			"mesh":8,
			"name":"train-electric-city-c.001",
			"rotation":[
				0,
				0.7074878215789795,
				0,
				0.706725537776947
			],
			"translation":[
				-6.686563491821289,
				0,
				0.0015559196472167969
			]
		},
		{
			"mesh":9,
			"name":"wheels-back.003",
			"translation":[
				0,
				0.35949936509132385,
				-0.4500004053115845
			]
		},
		{
			"mesh":10,
			"name":"wheels-front.003",
			"translation":[
				0,
				0.35949936509132385,
				0.44999924302101135
			]
		},
		{
			"children":[
				9,
				10
			],
			"mesh":11,
			"name":"train-electric-city-a.001",
			"rotation":[
				0,
				-0.7023449540138245,
				0,
				0.7118368148803711
			],
			"translation":[
				-9.223421096801758,
				0,
				0.004290938377380371
			]
		},
		{
			"mesh":12,
			"name":"COL",
			"rotation":[
				0,
				0.7074878215789795,
				0,
				0.706725537776947
			],
			"scale":[
				0.4880877733230591,
				1,
				5.291266918182373
			],
			"translation":[
				-5.287603855133057,
				0.9244341254234314,
				-0.004894860088825226
			]
		}
	],
	"materials":[
		{
			"doubleSided":true,
			"name":"colormap",
			"pbrMetallicRoughness":{
				"baseColorTexture":{
					"index":0
				},
				"metallicFactor":0
			}
		},
		{
			"doubleSided":true,
			"name":"colormap.001",
			"pbrMetallicRoughness":{
				"baseColorTexture":{
					"index":1
				},
				"metallicFactor":0
			}
		},
		{
			"doubleSided":true,
			"name":"colormap.002",
			"pbrMetallicRoughness":{
				"baseColorTexture":{
					"index":2
				},
				"metallicFactor":0
			}
		},
		{
			"doubleSided":true,
			"name":"colormap.003",
			"pbrMetallicRoughness":{
				"baseColorTexture":{
					"index":3
				},
				"metallicFactor":0
			}
		}
	],
	"meshes":[
		{
			"name":"wheels-back",
			"primitives":[
				{
					"attributes":{
						"POSITION":0,
						"NORMAL":1,
						"TEXCOORD_0":2
					},
					"indices":3,
					"material":0
				}
			]
		},
		{
			"name":"wheels-front",
			"primitives":[
				{
					"attributes":{
						"POSITION":4,
						"NORMAL":5,
						"TEXCOORD_0":6
					},
					"indices":3,
					"material":0
				}
			]
		},
		{
			"name":"train-electric-city-a",
			"primitives":[
				{
					"attributes":{
						"POSITION":7,
						"NORMAL":8,
						"TEXCOORD_0":9
					},
					"indices":10,
					"material":0
				}
			]
		},
		{
			"name":"wheels-back.001",
			"primitives":[
				{
					"attributes":{
						"POSITION":11,
						"NORMAL":12,
						"TEXCOORD_0":13
					},
					"indices":3,
					"material":1
				}
			]
		},
		{
			"name":"wheels-front.001",
			"primitives":[
				{
					"attributes":{
						"POSITION":14,
						"NORMAL":15,
						"TEXCOORD_0":16
					},
					"indices":3,
					"material":1
				}
			]
		},
		{
			"name":"train-electric-city-c",
			"primitives":[
				{
					"attributes":{
						"POSITION":17,
						"NORMAL":18,
						"TEXCOORD_0":19
					},
					"indices":20,
					"material":1
				}
			]
		},
		{
			"name":"wheels-back.002",
			"primitives":[
				{
					"attributes":{
						"POSITION":21,
						"NORMAL":22,
						"TEXCOORD_0":23
					},
					"indices":3,
					"material":2
				}
			]
		},
		{
			"name":"wheels-front.002",
			"primitives":[
				{
					"attributes":{
						"POSITION":24,
						"NORMAL":25,
						"TEXCOORD_0":26
					},
					"indices":3,
					"material":2
				}
			]
		},
		{
			"name":"train-electric-city-c.001",
			"primitives":[
				{
					"attributes":{
						"POSITION":27,
						"NORMAL":28,
						"TEXCOORD_0":29
					},
					"indices":20,
					"material":2
				}
			]
		},
		{
			"name":"wheels-back.003",
			"primitives":[
				{
					"attributes":{
						"POSITION":30,
						"NORMAL":31,
						"TEXCOORD_0":32
					},
					"indices":3,
					"material":3
				}
			]
		},
		{
			"name":"wheels-front.003",
			"primitives":[
				{
					"attributes":{
						"POSITION":33,
						"NORMAL":34,
						"TEXCOORD_0":35
					},
					"indices":3,
					"material":3
				}
			]
		},
		{
			"name":"train-electric-city-a.001",
			"primitives":[
				{
					"attributes":{
						"POSITION":36,
						"NORMAL":37,
						"TEXCOORD_0":38
					},
					"indices":10,
					"material":3
				}
			]
		},
		{
			"name":"\u7acb\u65b9\u4f53",
			"primitives":[
				{
					"attributes":{
						"POSITION":39,
						"NORMAL":40,
						"TEXCOORD_0":41
					},
					"indices":42
				}
			]
		}
	],
	"textures":[
		{
			"sampler":0,
			"source":0
		},
		{
			"sampler":0,
			"source":0
		},
		{
			"sampler":0,
			"source":0
		},
		{
			"sampler":0,
			"source":0
		}
	],
	"images":[
		{
			"mimeType":"image/png",
			"name":"colormap",
			"uri":"colormap.png"
		}
	],
	"accessors":[
		{
			"bufferView":0,
			"componentType":5126,
			"count":532,
			"max":[
				0.49149996042251587,
				0,
				0.3805955648422241
			],
			"min":[
				-0.49149972200393677,
				-0.35949936509132385,
				-0.3805955648422241
			],
			"type":"VEC3"
		},
		{
			"bufferView":1,
			"componentType":5126,
			"count":532,
			"type":"VEC3"
		},
		{
			"bufferView":2,
			"componentType":5126,
			"count":532,
			"type":"VEC2"
		},
		{
			"bufferView":3,
			"componentType":5123,
			"count":948,
			"type":"SCALAR"
		},
		{
			"bufferView":4,
			"componentType":5126,
			"count":532,
			"max":[
				0.49149996042251587,
				0,
				0.3805955648422241
			],
			"min":[
				-0.49149972200393677,
				-0.35949936509132385,
				-0.3805955648422241
			],
			"type":"VEC3"
		},
		{
			"bufferView":5,
			"componentType":5126,
			"count":532,
			"type":"VEC3"
		},
		{
			"bufferView":6,
			"componentType":5126,
			"count":532,
			"type":"VEC2"
		},
		{
			"bufferView":7,
			"componentType":5126,
			"count":876,
			"max":[
				0.5499999523162842,
				1.6827982664108276,
				1.1999999284744263
			],
			"min":[
				-0.5499999523162842,
				0.1594993621110916,
				-1.2000000476837158
			],
			"type":"VEC3"
		},
		{
			"bufferView":8,
			"componentType":5126,
			"count":876,
			"type":"VEC3"
		},
		{
			"bufferView":9,
			"componentType":5126,
			"count":876,
			"type":"VEC2"
		},
		{
			"bufferView":10,
			"componentType":5123,
			"count":1494,
			"type":"SCALAR"
		},
		{
			"bufferView":11,
			"componentType":5126,
			"count":532,
			"max":[
				0.49149996042251587,
				0,
				0.3805958032608032
			],
			"min":[
				-0.49149972200393677,
				-0.35949936509132385,
				-0.3805958032608032
			],
			"type":"VEC3"
		},
		{
			"bufferView":12,
			"componentType":5126,
			"count":532,
			"type":"VEC3"
		},
		{
			"bufferView":13,
			"componentType":5126,
			"count":532,
			"type":"VEC2"
		},
		{
			"bufferView":14,
			"componentType":5126,
			"count":532,
			"max":[
				0.49149996042251587,
				0,
				0.3805958032608032
			],
			"min":[
				-0.49149972200393677,
				-0.35949936509132385,
				-0.3805958032608032
			],
			"type":"VEC3"
		},
		{
			"bufferView":15,
			"componentType":5126,
			"count":532,
			"type":"VEC3"
		},
		{
			"bufferView":16,
			"componentType":5126,
			"count":532,
			"type":"VEC2"
		},
		{
			"bufferView":17,
			"componentType":5126,
			"count":1210,
			"max":[
				0.5499999523162842,
				1.6827982664108276,
				1.350000023841858
			],
			"min":[
				-0.5499999523162842,
				0.1594993621110916,
				-1.3500001430511475
			],
			"type":"VEC3"
		},
		{
			"bufferView":18,
			"componentType":5126,
			"count":1210,
			"type":"VEC3"
		},
		{
			"bufferView":19,
			"componentType":5126,
			"count":1210,
			"type":"VEC2"
		},
		{
			"bufferView":20,
			"componentType":5123,
			"count":2112,
			"type":"SCALAR"
		},
		{
			"bufferView":21,
			"componentType":5126,
			"count":532,
			"max":[
				0.49149996042251587,
				0,
				0.3805958032608032
			],
			"min":[
				-0.49149972200393677,
				-0.35949936509132385,
				-0.3805958032608032
			],
			"type":"VEC3"
		},
		{
			"bufferView":22,
			"componentType":5126,
			"count":532,
			"type":"VEC3"
		},
		{
			"bufferView":23,
			"componentType":5126,
			"count":532,
			"type":"VEC2"
		},
		{
			"bufferView":24,
			"componentType":5126,
			"count":532,
			"max":[
				0.49149996042251587,
				0,
				0.3805958032608032
			],
			"min":[
				-0.49149972200393677,
				-0.35949936509132385,
				-0.3805958032608032
			],
			"type":"VEC3"
		},
		{
			"bufferView":25,
			"componentType":5126,
			"count":532,
			"type":"VEC3"
		},
		{
			"bufferView":26,
			"componentType":5126,
			"count":532,
			"type":"VEC2"
		},
		{
			"bufferView":27,
			"componentType":5126,
			"count":1210,
			"max":[
				0.5499999523162842,
				1.6827982664108276,
				1.350000023841858
			],
			"min":[
				-0.5499999523162842,
				0.1594993621110916,
				-1.3500001430511475
			],
			"type":"VEC3"
		},
		{
			"bufferView":28,
			"componentType":5126,
			"count":1210,
			"type":"VEC3"
		},
		{
			"bufferView":29,
			"componentType":5126,
			"count":1210,
			"type":"VEC2"
		},
		{
			"bufferView":30,
			"componentType":5126,
			"count":532,
			"max":[
				0.49149996042251587,
				0,
				0.3805955648422241
			],
			"min":[
				-0.49149972200393677,
				-0.35949936509132385,
				-0.3805955648422241
			],
			"type":"VEC3"
		},
		{
			"bufferView":31,
			"componentType":5126,
			"count":532,
			"type":"VEC3"
		},
		{
			"bufferView":32,
			"componentType":5126,
			"count":532,
			"type":"VEC2"
		},
		{
			"bufferView":33,
			"componentType":5126,
			"count":532,
			"max":[
				0.49149996042251587,
				0,
				0.3805955648422241
			],
			"min":[
				-0.49149972200393677,
				-0.35949936509132385,
				-0.3805955648422241
			],
			"type":"VEC3"
		},
		{
			"bufferView":34,
			"componentType":5126,
			"count":532,
			"type":"VEC3"
		},
		{
			"bufferView":35,
			"componentType":5126,
			"count":532,
			"type":"VEC2"
		},
		{
			"bufferView":36,
			"componentType":5126,
			"count":876,
			"max":[
				0.5499999523162842,
				1.6827982664108276,
				1.1999999284744263
			],
			"min":[
				-0.5499999523162842,
				0.1594993621110916,
				-1.2000000476837158
			],
			"type":"VEC3"
		},
		{
			"bufferView":37,
			"componentType":5126,
			"count":876,
			"type":"VEC3"
		},
		{
			"bufferView":38,
			"componentType":5126,
			"count":876,
			"type":"VEC2"
		},
		{
			"bufferView":39,
			"componentType":5126,
			"count":24,
			"max":[
				1,
				1,
				1
			],
			"min":[
				-1,
				-1,
				-1
			],
			"type":"VEC3"
		},
		{
			"bufferView":40,
			"componentType":5126,
			"count":24,
			"type":"VEC3"
		},
		{
			"bufferView":41,
			"componentType":5126,
			"count":24,
			"type":"VEC2"
		},
		{
			"bufferView":42,
			"componentType":5123,
			"count":36,
			"type":"SCALAR"
		}
	],
	"bufferViews":[
		{
			"buffer":0,
			"byteLength":6384,
			"byteOffset":0,
			"target":34962
		},
		{
			"buffer":0,
			"byteLength":6384,
			"byteOffset":6384,
			"target":34962
		},
		{
			"buffer":0,
			"byteLength":4256,
			"byteOffset":12768,
			"target":34962
		},
		{
			"buffer":0,
			"byteLength":1896,
			"byteOffset":17024,
			"target":34963
		},
		{
			"buffer":0,
			"byteLength":6384,
			"byteOffset":18920,
			"target":34962
		},
		{
			"buffer":0,
			"byteLength":6384,
			"byteOffset":25304,
			"target":34962
		},
		{
			"buffer":0,
			"byteLength":4256,
			"byteOffset":31688,
			"target":34962
		},
		{
			"buffer":0,
			"byteLength":10512,
			"byteOffset":35944,
			"target":34962
		},
		{
			"buffer":0,
			"byteLength":10512,
			"byteOffset":46456,
			"target":34962
		},
		{
			"buffer":0,
			"byteLength":7008,
			"byteOffset":56968,
			"target":34962
		},
		{
			"buffer":0,
			"byteLength":2988,
			"byteOffset":63976,
			"target":34963
		},
		{
			"buffer":0,
			"byteLength":6384,
			"byteOffset":66964,
			"target":34962
		},
		{
			"buffer":0,
			"byteLength":6384,
			"byteOffset":73348,
			"target":34962
		},
		{
			"buffer":0,
			"byteLength":4256,
			"byteOffset":79732,
			"target":34962
		},
		{
			"buffer":0,
			"byteLength":6384,
			"byteOffset":83988,
			"target":34962
		},
		{
			"buffer":0,
			"byteLength":6384,
			"byteOffset":90372,
			"target":34962
		},
		{
			"buffer":0,
			"byteLength":4256,
			"byteOffset":96756,
			"target":34962
		},
		{
			"buffer":0,
			"byteLength":14520,
			"byteOffset":101012,
			"target":34962
		},
		{
			"buffer":0,
			"byteLength":14520,
			"byteOffset":115532,
			"target":34962
		},
		{
			"buffer":0,
			"byteLength":9680,
			"byteOffset":130052,
			"target":34962
		},
		{
			"buffer":0,
			"byteLength":4224,
			"byteOffset":139732,
			"target":34963
		},
		{
			"buffer":0,
			"byteLength":6384,
			"byteOffset":143956,
			"target":34962
		},
		{
			"buffer":0,
			"byteLength":6384,
			"byteOffset":150340,
			"target":34962
		},
		{
			"buffer":0,
			"byteLength":4256,
			"byteOffset":156724,
			"target":34962
		},
		{
			"buffer":0,
			"byteLength":6384,
			"byteOffset":160980,
			"target":34962
		},
		{
			"buffer":0,
			"byteLength":6384,
			"byteOffset":167364,
			"target":34962
		},
		{
			"buffer":0,
			"byteLength":4256,
			"byteOffset":173748,
			"target":34962
		},
		{
			"buffer":0,
			"byteLength":14520,
			"byteOffset":178004,
			"target":34962
		},
		{
			"buffer":0,
			"byteLength":14520,
			"byteOffset":192524,
			"target":34962
		},
		{
			"buffer":0,
			"byteLength":9680,
			"byteOffset":207044,
			"target":34962
		},
		{
			"buffer":0,
			"byteLength":6384,
			"byteOffset":216724,
			"target":34962
		},
		{
			"buffer":0,
			"byteLength":6384,
			"byteOffset":223108,
			"target":34962
		},
		{
			"buffer":0,
			"byteLength":4256,
			"byteOffset":229492,
			"target":34962
		},
		{
			"buffer":0,
			"byteLength":6384,
			"byteOffset":233748,
			"target":34962
		},
		{
			"buffer":0,
			"byteLength":6384,
			"byteOffset":240132,
			"target":34962
		},
		{
			"buffer":0,
			"byteLength":4256,
			"byteOffset":246516,
			"target":34962
		},
		{
			"buffer":0,
			"byteLength":10512,
			"byteOffset":250772,
			"target":34962
		},
		{
			"buffer":0,
			"byteLength":10512,
			"byteOffset":261284,
			"target":34962
		},
		{
			"buffer":0,
			"byteLength":7008,
			"byteOffset":271796,
			"target":34962
		},
		{
			"buffer":0,
			"byteLength":288,
			"byteOffset":278804,
			"target":34962
		},
		{
			"buffer":0,
			"byteLength":288,
			"byteOffset":279092,
			"target":34962
		},
		{
			"buffer":0,
			"byteLength":192,
			"byteOffset":279380,
			"target":34962
		},
		{
			"buffer":0,
			"byteLength":72,
			"byteOffset":279572,
			"target":34963
		}
	],
	"samplers":[
		{
			"magFilter":9728,
			"minFilter":9984
		}
	],
	"buffers":[
		{
			"byteLength":279644,
			"uri":"trainCOL1.bin"
		}
	]
}
