{
	"asset":{
		"generator":"Khronos glTF Blender I/O v4.2.57",
		"version":"2.0"
	},
	"scene":0,
	"scenes":[
		{
			"name":"Scene",
			"nodes":[
				1
			]
		}
	],
	"nodes":[
		{
			"mesh":0,
			"name":"tile_riverBridge",
			"rotation":[
				0,
				0.7071068286895752,
				0,
				0.7071068286895752
			]
		},
		{
			"children":[
				0
			],
			"name":"tmpParent"
		}
	],
	"materials":[
		{
			"name":"wood",
			"pbrMetallicRoughness":{
				"baseColorFactor":[
					0.8784313797950745,
					0.5333333611488342,
					0.3607843220233917,
					1
				]
			}
		},
		{
			"name":"water",
			"pbrMetallicRoughness":{
				"baseColorFactor":[
					0.3843137323856354,
					0.9019607901573181,
					1,
					1
				]
			}
		},
		{
			"name":"dirt",
			"pbrMetallicRoughness":{
				"baseColorFactor":[
					0.9764705896377563,
					0.7137255072593689,
					0.45098039507865906,
					1
				]
			}
		},
		{
			"name":"foliage",
			"pbrMetallicRoughness":{
				"baseColorFactor":[
					0.2666666805744171,
					0.7098039388656616,
					0.5529412031173706,
					1
				]
			}
		}
	],
	"meshes":[
		{
			"name":"Mesh tile_riverBridge",
			"primitives":[
				{
					"attributes":{
						"POSITION":0,
						"NORMAL":1,
						"TEXCOORD_0":2
					},
					"indices":3,
					"material":0
				},
				{
					"attributes":{
						"POSITION":4,
						"NORMAL":5,
						"TEXCOORD_0":6
					},
					"indices":7,
					"material":1
				},
				{
					"attributes":{
						"POSITION":8,
						"NORMAL":9,
						"TEXCOORD_0":10
					},
					"indices":11,
					"material":2
				},
				{
					"attributes":{
						"POSITION":12,
						"NORMAL":13,
						"TEXCOORD_0":14
					},
					"indices":15,
					"material":3
				}
			]
		}
	],
	"accessors":[
		{
			"bufferView":0,
			"componentType":5126,
			"count":100,
			"max":[
				0.5,
				0.30000001192092896,
				0.375
			],
			"min":[
				-0.5,
				0.15000000596046448,
				-0.3749999701976776
			],
			"type":"VEC3"
		},
		{
			"bufferView":1,
			"componentType":5126,
			"count":100,
			"type":"VEC3"
		},
		{
			"bufferView":2,
			"componentType":5126,
			"count":100,
			"type":"VEC2"
		},
		{
			"bufferView":3,
			"componentType":5123,
			"count":186,
			"type":"SCALAR"
		},
		{
			"bufferView":4,
			"componentType":5126,
			"count":16,
			"max":[
				0.25,
				0.15000000596046448,
				0.5
			],
			"min":[
				-0.25,
				0.10000000149011612,
				-0.5
			],
			"type":"VEC3"
		},
		{
			"bufferView":5,
			"componentType":5126,
			"count":16,
			"type":"VEC3"
		},
		{
			"bufferView":6,
			"componentType":5126,
			"count":16,
			"type":"VEC2"
		},
		{
			"bufferView":7,
			"componentType":5123,
			"count":24,
			"type":"SCALAR"
		},
		{
			"bufferView":8,
			"componentType":5126,
			"count":72,
			"max":[
				0.5,
				0.20000000298023224,
				0.5
			],
			"min":[
				-0.5,
				0,
				-0.5
			],
			"type":"VEC3"
		},
		{
			"bufferView":9,
			"componentType":5126,
			"count":72,
			"type":"VEC3"
		},
		{
			"bufferView":10,
			"componentType":5126,
			"count":72,
			"type":"VEC2"
		},
		{
			"bufferView":11,
			"componentType":5123,
			"count":138,
			"type":"SCALAR"
		},
		{
			"bufferView":12,
			"componentType":5126,
			"count":52,
			"max":[
				0.5,
				0.20000000298023224,
				0.5
			],
			"min":[
				-0.5,
				0.10000000149011612,
				-0.5
			],
			"type":"VEC3"
		},
		{
			"bufferView":13,
			"componentType":5126,
			"count":52,
			"type":"VEC3"
		},
		{
			"bufferView":14,
			"componentType":5126,
			"count":52,
			"type":"VEC2"
		},
		{
			"bufferView":15,
			"componentType":5123,
			"count":96,
			"type":"SCALAR"
		}
	],
	"bufferViews":[
		{
			"buffer":0,
			"byteLength":1200,
			"byteOffset":0,
			"target":34962
		},
		{
			"buffer":0,
			"byteLength":1200,
			"byteOffset":1200,
			"target":34962
		},
		{
			"buffer":0,
			"byteLength":800,
			"byteOffset":2400,
			"target":34962
		},
		{
			"buffer":0,
			"byteLength":372,
			"byteOffset":3200,
			"target":34963
		},
		{
			"buffer":0,
			"byteLength":192,
			"byteOffset":3572,
			"target":34962
		},
		{
			"buffer":0,
			"byteLength":192,
			"byteOffset":3764,
			"target":34962
		},
		{
			"buffer":0,
			"byteLength":128,
			"byteOffset":3956,
			"target":34962
		},
		{
			"buffer":0,
			"byteLength":48,
			"byteOffset":4084,
			"target":34963
		},
		{
			"buffer":0,
			"byteLength":864,
			"byteOffset":4132,
			"target":34962
		},
		{
			"buffer":0,
			"byteLength":864,
			"byteOffset":4996,
			"target":34962
		},
		{
			"buffer":0,
			"byteLength":576,
			"byteOffset":5860,
			"target":34962
		},
		{
			"buffer":0,
			"byteLength":276,
			"byteOffset":6436,
			"target":34963
		},
		{
			"buffer":0,
			"byteLength":624,
			"byteOffset":6712,
			"target":34962
		},
		{
			"buffer":0,
			"byteLength":624,
			"byteOffset":7336,
			"target":34962
		},
		{
			"buffer":0,
			"byteLength":416,
			"byteOffset":7960,
			"target":34962
		},
		{
			"buffer":0,
			"byteLength":192,
			"byteOffset":8376,
			"target":34963
		}
	],
	"buffers":[
		{
			"byteLength":8568,
			"uri":"bridge.bin"
		}
	]
}
