{
	"asset":{
		"generator":"Khronos glTF Blender I/O v4.2.57",
		"version":"2.0"
	},
	"scene":0,
	"scenes":[
		{
			"name":"Scene",
			"nodes":[
				0,
				2
			]
		}
	],
	"nodes":[
		{
			"name":"tmpParent"
		},
		{
			"mesh":0,
			"name":"tile_riverStraight"
		},
		{
			"children":[
				1
			],
			"name":"tmpParent.001",
			"rotation":[
				0,
				0.7071068286895752,
				0,
				0.7071068286895752
			]
		}
	],
	"materials":[
		{
			"name":"dirt.001",
			"pbrMetallicRoughness":{
				"baseColorFactor":[
					0.9764705896377563,
					0.7137255072593689,
					0.45098039507865906,
					1
				]
			}
		},
		{
			"name":"foliage.001",
			"pbrMetallicRoughness":{
				"baseColorFactor":[
					0.2666666805744171,
					0.7098039388656616,
					0.5529412031173706,
					1
				]
			}
		},
		{
			"name":"water.001",
			"pbrMetallicRoughness":{
				"baseColorFactor":[
					0.3843137323856354,
					0.9019607901573181,
					1,
					1
				]
			}
		}
	],
	"meshes":[
		{
			"name":"Mesh tile_riverStraight",
			"primitives":[
				{
					"attributes":{
						"POSITION":0,
						"NORMAL":1,
						"TEXCOORD_0":2
					},
					"indices":3,
					"material":0
				},
				{
					"attributes":{
						"POSITION":4,
						"NORMAL":5,
						"TEXCOORD_0":6
					},
					"indices":7,
					"material":1
				},
				{
					"attributes":{
						"POSITION":8,
						"NORMAL":9,
						"TEXCOORD_0":10
					},
					"indices":11,
					"material":2
				}
			]
		}
	],
	"accessors":[
		{
			"bufferView":0,
			"componentType":5126,
			"count":56,
			"max":[
				0.5,
				0.20000000298023224,
				0.5
			],
			"min":[
				-0.5,
				0,
				-0.5
			],
			"type":"VEC3"
		},
		{
			"bufferView":1,
			"componentType":5126,
			"count":56,
			"type":"VEC3"
		},
		{
			"bufferView":2,
			"componentType":5126,
			"count":56,
			"type":"VEC2"
		},
		{
			"bufferView":3,
			"componentType":5123,
			"count":114,
			"type":"SCALAR"
		},
		{
			"bufferView":4,
			"componentType":5126,
			"count":32,
			"max":[
				0.5,
				0.20000000298023224,
				0.5
			],
			"min":[
				-0.5,
				0.10000000149011612,
				-0.5
			],
			"type":"VEC3"
		},
		{
			"bufferView":5,
			"componentType":5126,
			"count":32,
			"type":"VEC3"
		},
		{
			"bufferView":6,
			"componentType":5126,
			"count":32,
			"type":"VEC2"
		},
		{
			"bufferView":7,
			"componentType":5123,
			"count":48,
			"type":"SCALAR"
		},
		{
			"bufferView":8,
			"componentType":5126,
			"count":12,
			"max":[
				0.25,
				0.15000000596046448,
				0.5
			],
			"min":[
				-0.25,
				0.10000000149011612,
				-0.5
			],
			"type":"VEC3"
		},
		{
			"bufferView":9,
			"componentType":5126,
			"count":12,
			"type":"VEC3"
		},
		{
			"bufferView":10,
			"componentType":5126,
			"count":12,
			"type":"VEC2"
		},
		{
			"bufferView":11,
			"componentType":5123,
			"count":18,
			"type":"SCALAR"
		}
	],
	"bufferViews":[
		{
			"buffer":0,
			"byteLength":672,
			"byteOffset":0,
			"target":34962
		},
		{
			"buffer":0,
			"byteLength":672,
			"byteOffset":672,
			"target":34962
		},
		{
			"buffer":0,
			"byteLength":448,
			"byteOffset":1344,
			"target":34962
		},
		{
			"buffer":0,
			"byteLength":228,
			"byteOffset":1792,
			"target":34963
		},
		{
			"buffer":0,
			"byteLength":384,
			"byteOffset":2020,
			"target":34962
		},
		{
			"buffer":0,
			"byteLength":384,
			"byteOffset":2404,
			"target":34962
		},
		{
			"buffer":0,
			"byteLength":256,
			"byteOffset":2788,
			"target":34962
		},
		{
			"buffer":0,
			"byteLength":96,
			"byteOffset":3044,
			"target":34963
		},
		{
			"buffer":0,
			"byteLength":144,
			"byteOffset":3140,
			"target":34962
		},
		{
			"buffer":0,
			"byteLength":144,
			"byteOffset":3284,
			"target":34962
		},
		{
			"buffer":0,
			"byteLength":96,
			"byteOffset":3428,
			"target":34962
		},
		{
			"buffer":0,
			"byteLength":36,
			"byteOffset":3524,
			"target":34963
		}
	],
	"buffers":[
		{
			"byteLength":3560,
			"uri":"river.bin"
		}
	]
}
