{
	"asset":{
		"generator":"Khronos glTF Blender I/O v4.2.57",
		"version":"2.0"
	},
	"scene":0,
	"scenes":[
		{
			"name":"Scene",
			"nodes":[
				9
			]
		}
	],
	"nodes":[
		{
			"name":"Tail",
			"rotation":[
				-0.06650910526514053,
				1.5503818229234412e-09,
				1.6339660291464497e-08,
				0.9977858662605286
			],
			"scale":[
				1,
				1,
				0.9999999403953552
			],
			"translation":[
				-7.37463423661211e-10,
				1.7248070240020752,
				1.4900804146122937e-08
			]
		},
		{
			"children":[
				0
			],
			"name":"Spine3",
			"rotation":[
				0.007390585727989674,
				-1.5104787962627597e-05,
				-0.0030181382317095995,
				0.9999681711196899
			],
			"scale":[
				0.9999999403953552,
				0.9999999403953552,
				1
			],
			"translation":[
				-3.4924596548080444e-10,
				1.6590006351470947,
				-1.5069595349359588e-08
			]
		},
		{
			"children":[
				1
			],
			"name":"Spine2",
			"rotation":[
				0.007264928426593542,
				-2.9162614737288095e-05,
				0.0030180353205651045,
				0.9999690651893616
			],
			"scale":[
				0.9999999403953552,
				1,
				1.0000001192092896
			],
			"translation":[
				-1.988000458696959e-10,
				1.561596393585205,
				1.880736455461829e-09
			]
		},
		{
			"children":[
				2
			],
			"name":"Spine1",
			"rotation":[
				-0.6807581186294556,
				-9.80976100350972e-09,
				-1.4189090791205672e-08,
				0.7325083613395691
			],
			"scale":[
				1,
				0.9999999403953552,
				0.9999999403953552
			],
			"translation":[
				0.002428121864795685,
				0.4141339063644409,
				1.5354437828063965
			]
		},
		{
			"name":"Bone",
			"rotation":[
				-0.9949305653572083,
				-0.09846168011426926,
				-0.004150879569351673,
				0.02002970688045025
			],
			"scale":[
				1.0000038146972656,
				1.000000238418579,
				1.000000238418579
			],
			"translation":[
				0.4186769425868988,
				-0.8311822414398193,
				-0.4938739240169525
			]
		},
		{
			"name":"Bone.001",
			"rotation":[
				-0.9965046644210815,
				0.08114682883024216,
				-0.0005622896132990718,
				0.019832875579595566
			],
			"scale":[
				0.9999903440475464,
				0.9999996423721313,
				0.9999993443489075
			],
			"translation":[
				-0.4668065011501312,
				-0.7839344143867493,
				-0.4895031154155731
			]
		},
		{
			"children":[
				4,
				5
			],
			"name":"Face",
			"rotation":[
				0.6737328767776489,
				1.064751586454804e-06,
				9.937219829225796e-07,
				0.7389749884605408
			],
			"translation":[
				0.002428111620247364,
				0.3733499050140381,
				1.820365071296692
			]
		},
		{
			"children":[
				3,
				6
			],
			"name":"Root",
			"rotation":[
				-8.557136332854043e-09,
				1.7114272665708086e-08,
				-2.928983286277023e-16,
				1
			],
			"translation":[
				0,
				-0.5,
				0
			]
		},
		{
			"mesh":0,
			"name":"Fish",
			"skin":0
		},
		{
			"children":[
				8,
				7
			],
			"name":"Armature"
		}
	],
	"animations":[
		{
			"channels":[
				{
					"sampler":0,
					"target":{
						"node":7,
						"path":"translation"
					}
				},
				{
					"sampler":1,
					"target":{
						"node":7,
						"path":"rotation"
					}
				},
				{
					"sampler":2,
					"target":{
						"node":7,
						"path":"scale"
					}
				},
				{
					"sampler":3,
					"target":{
						"node":3,
						"path":"translation"
					}
				},
				{
					"sampler":4,
					"target":{
						"node":3,
						"path":"rotation"
					}
				},
				{
					"sampler":5,
					"target":{
						"node":3,
						"path":"scale"
					}
				},
				{
					"sampler":6,
					"target":{
						"node":2,
						"path":"translation"
					}
				},
				{
					"sampler":7,
					"target":{
						"node":2,
						"path":"rotation"
					}
				},
				{
					"sampler":8,
					"target":{
						"node":2,
						"path":"scale"
					}
				},
				{
					"sampler":9,
					"target":{
						"node":1,
						"path":"translation"
					}
				},
				{
					"sampler":10,
					"target":{
						"node":1,
						"path":"rotation"
					}
				},
				{
					"sampler":11,
					"target":{
						"node":1,
						"path":"scale"
					}
				},
				{
					"sampler":12,
					"target":{
						"node":0,
						"path":"translation"
					}
				},
				{
					"sampler":13,
					"target":{
						"node":0,
						"path":"rotation"
					}
				},
				{
					"sampler":14,
					"target":{
						"node":0,
						"path":"scale"
					}
				},
				{
					"sampler":15,
					"target":{
						"node":6,
						"path":"translation"
					}
				},
				{
					"sampler":16,
					"target":{
						"node":6,
						"path":"rotation"
					}
				},
				{
					"sampler":17,
					"target":{
						"node":6,
						"path":"scale"
					}
				},
				{
					"sampler":18,
					"target":{
						"node":4,
						"path":"translation"
					}
				},
				{
					"sampler":19,
					"target":{
						"node":4,
						"path":"rotation"
					}
				},
				{
					"sampler":20,
					"target":{
						"node":4,
						"path":"scale"
					}
				},
				{
					"sampler":21,
					"target":{
						"node":5,
						"path":"translation"
					}
				},
				{
					"sampler":22,
					"target":{
						"node":5,
						"path":"rotation"
					}
				},
				{
					"sampler":23,
					"target":{
						"node":5,
						"path":"scale"
					}
				}
			],
			"name":"Swim",
			"samplers":[
				{
					"input":16,
					"interpolation":"STEP",
					"output":17
				},
				{
					"input":18,
					"interpolation":"LINEAR",
					"output":19
				},
				{
					"input":16,
					"interpolation":"STEP",
					"output":20
				},
				{
					"input":16,
					"interpolation":"STEP",
					"output":21
				},
				{
					"input":16,
					"interpolation":"STEP",
					"output":22
				},
				{
					"input":16,
					"interpolation":"STEP",
					"output":23
				},
				{
					"input":16,
					"interpolation":"STEP",
					"output":24
				},
				{
					"input":16,
					"interpolation":"STEP",
					"output":25
				},
				{
					"input":16,
					"interpolation":"STEP",
					"output":26
				},
				{
					"input":16,
					"interpolation":"STEP",
					"output":27
				},
				{
					"input":18,
					"interpolation":"LINEAR",
					"output":28
				},
				{
					"input":16,
					"interpolation":"LINEAR",
					"output":29
				},
				{
					"input":16,
					"interpolation":"LINEAR",
					"output":30
				},
				{
					"input":18,
					"interpolation":"LINEAR",
					"output":31
				},
				{
					"input":16,
					"interpolation":"LINEAR",
					"output":32
				},
				{
					"input":16,
					"interpolation":"STEP",
					"output":33
				},
				{
					"input":16,
					"interpolation":"STEP",
					"output":34
				},
				{
					"input":16,
					"interpolation":"STEP",
					"output":35
				},
				{
					"input":16,
					"interpolation":"STEP",
					"output":36
				},
				{
					"input":18,
					"interpolation":"LINEAR",
					"output":37
				},
				{
					"input":16,
					"interpolation":"STEP",
					"output":38
				},
				{
					"input":16,
					"interpolation":"STEP",
					"output":39
				},
				{
					"input":18,
					"interpolation":"LINEAR",
					"output":40
				},
				{
					"input":16,
					"interpolation":"STEP",
					"output":41
				}
			]
		}
	],
	"materials":[
		{
			"doubleSided":true,
			"name":"Bottom",
			"pbrMetallicRoughness":{
				"baseColorFactor":[
					0.6845993995666504,
					0.8000138998031616,
					0.727851390838623,
					1
				],
				"metallicFactor":0,
				"roughnessFactor":0.5
			}
		},
		{
			"doubleSided":true,
			"name":"Top",
			"pbrMetallicRoughness":{
				"baseColorFactor":[
					0.800017237663269,
					0.35866376757621765,
					0.2407217174768448,
					1
				],
				"metallicFactor":0,
				"roughnessFactor":0.5
			}
		},
		{
			"doubleSided":true,
			"name":"Fins",
			"pbrMetallicRoughness":{
				"baseColorFactor":[
					0.8000023365020752,
					0.6559876799583435,
					0.4017064571380615,
					1
				],
				"metallicFactor":0,
				"roughnessFactor":0.5
			}
		}
	],
	"meshes":[
		{
			"name":"Cube.001",
			"primitives":[
				{
					"attributes":{
						"POSITION":0,
						"NORMAL":1,
						"JOINTS_0":2,
						"WEIGHTS_0":3
					},
					"indices":4,
					"material":0
				},
				{
					"attributes":{
						"POSITION":5,
						"NORMAL":6,
						"JOINTS_0":7,
						"WEIGHTS_0":8
					},
					"indices":9,
					"material":1
				},
				{
					"attributes":{
						"POSITION":10,
						"NORMAL":11,
						"JOINTS_0":12,
						"WEIGHTS_0":13
					},
					"indices":14,
					"material":2
				}
			]
		}
	],
	"skins":[
		{
			"inverseBindMatrices":15,
			"joints":[
				7,
				3,
				2,
				1,
				0,
				6,
				4,
				5
			],
			"name":"Armature"
		}
	],
	"accessors":[
		{
			"bufferView":0,
			"componentType":5126,
			"count":392,
			"max":[
				0.40653109550476074,
				0.6193881630897522,
				3.0258781909942627
			],
			"min":[
				-0.40653109550476074,
				-0.9784993529319763,
				-4.059359550476074
			],
			"type":"VEC3"
		},
		{
			"bufferView":1,
			"componentType":5126,
			"count":392,
			"type":"VEC3"
		},
		{
			"bufferView":2,
			"componentType":5121,
			"count":392,
			"type":"VEC4"
		},
		{
			"bufferView":3,
			"componentType":5126,
			"count":392,
			"type":"VEC4"
		},
		{
			"bufferView":4,
			"componentType":5123,
			"count":564,
			"type":"SCALAR"
		},
		{
			"bufferView":5,
			"componentType":5126,
			"count":188,
			"max":[
				0.35130706429481506,
				1.1192981004714966,
				2.177490234375
			],
			"min":[
				-0.35130706429481506,
				-0.10147123038768768,
				-4.059359550476074
			],
			"type":"VEC3"
		},
		{
			"bufferView":6,
			"componentType":5126,
			"count":188,
			"type":"VEC3"
		},
		{
			"bufferView":7,
			"componentType":5121,
			"count":188,
			"type":"VEC4"
		},
		{
			"bufferView":8,
			"componentType":5126,
			"count":188,
			"type":"VEC4"
		},
		{
			"bufferView":9,
			"componentType":5123,
			"count":282,
			"type":"SCALAR"
		},
		{
			"bufferView":10,
			"componentType":5126,
			"count":518,
			"max":[
				0.576770544052124,
				1.4666905403137207,
				1.0695481300354004
			],
			"min":[
				-0.5767698287963867,
				-1.1992310285568237,
				-4.957616329193115
			],
			"type":"VEC3"
		},
		{
			"bufferView":11,
			"componentType":5126,
			"count":518,
			"type":"VEC3"
		},
		{
			"bufferView":12,
			"componentType":5121,
			"count":518,
			"type":"VEC4"
		},
		{
			"bufferView":13,
			"componentType":5126,
			"count":518,
			"type":"VEC4"
		},
		{
			"bufferView":14,
			"componentType":5123,
			"count":786,
			"type":"SCALAR"
		},
		{
			"bufferView":15,
			"componentType":5126,
			"count":8,
			"type":"MAT4"
		},
		{
			"bufferView":16,
			"componentType":5126,
			"count":2,
			"max":[
				1.2916666666666667
			],
			"min":[
				0
			],
			"type":"SCALAR"
		},
		{
			"bufferView":17,
			"componentType":5126,
			"count":2,
			"type":"VEC3"
		},
		{
			"bufferView":18,
			"componentType":5126,
			"count":32,
			"max":[
				1.2916666666666667
			],
			"min":[
				0
			],
			"type":"SCALAR"
		},
		{
			"bufferView":19,
			"componentType":5126,
			"count":32,
			"type":"VEC4"
		},
		{
			"bufferView":20,
			"componentType":5126,
			"count":2,
			"type":"VEC3"
		},
		{
			"bufferView":21,
			"componentType":5126,
			"count":2,
			"type":"VEC3"
		},
		{
			"bufferView":22,
			"componentType":5126,
			"count":2,
			"type":"VEC4"
		},
		{
			"bufferView":23,
			"componentType":5126,
			"count":2,
			"type":"VEC3"
		},
		{
			"bufferView":24,
			"componentType":5126,
			"count":2,
			"type":"VEC3"
		},
		{
			"bufferView":25,
			"componentType":5126,
			"count":2,
			"type":"VEC4"
		},
		{
			"bufferView":26,
			"componentType":5126,
			"count":2,
			"type":"VEC3"
		},
		{
			"bufferView":27,
			"componentType":5126,
			"count":2,
			"type":"VEC3"
		},
		{
			"bufferView":28,
			"componentType":5126,
			"count":32,
			"type":"VEC4"
		},
		{
			"bufferView":29,
			"componentType":5126,
			"count":2,
			"type":"VEC3"
		},
		{
			"bufferView":30,
			"componentType":5126,
			"count":2,
			"type":"VEC3"
		},
		{
			"bufferView":31,
			"componentType":5126,
			"count":32,
			"type":"VEC4"
		},
		{
			"bufferView":32,
			"componentType":5126,
			"count":2,
			"type":"VEC3"
		},
		{
			"bufferView":33,
			"componentType":5126,
			"count":2,
			"type":"VEC3"
		},
		{
			"bufferView":34,
			"componentType":5126,
			"count":2,
			"type":"VEC4"
		},
		{
			"bufferView":35,
			"componentType":5126,
			"count":2,
			"type":"VEC3"
		},
		{
			"bufferView":36,
			"componentType":5126,
			"count":2,
			"type":"VEC3"
		},
		{
			"bufferView":37,
			"componentType":5126,
			"count":32,
			"type":"VEC4"
		},
		{
			"bufferView":38,
			"componentType":5126,
			"count":2,
			"type":"VEC3"
		},
		{
			"bufferView":39,
			"componentType":5126,
			"count":2,
			"type":"VEC3"
		},
		{
			"bufferView":40,
			"componentType":5126,
			"count":32,
			"type":"VEC4"
		},
		{
			"bufferView":41,
			"componentType":5126,
			"count":2,
			"type":"VEC3"
		}
	],
	"bufferViews":[
		{
			"buffer":0,
			"byteLength":4704,
			"byteOffset":0,
			"target":34962
		},
		{
			"buffer":0,
			"byteLength":4704,
			"byteOffset":4704,
			"target":34962
		},
		{
			"buffer":0,
			"byteLength":1568,
			"byteOffset":9408,
			"target":34962
		},
		{
			"buffer":0,
			"byteLength":6272,
			"byteOffset":10976,
			"target":34962
		},
		{
			"buffer":0,
			"byteLength":1128,
			"byteOffset":17248,
			"target":34963
		},
		{
			"buffer":0,
			"byteLength":2256,
			"byteOffset":18376,
			"target":34962
		},
		{
			"buffer":0,
			"byteLength":2256,
			"byteOffset":20632,
			"target":34962
		},
		{
			"buffer":0,
			"byteLength":752,
			"byteOffset":22888,
			"target":34962
		},
		{
			"buffer":0,
			"byteLength":3008,
			"byteOffset":23640,
			"target":34962
		},
		{
			"buffer":0,
			"byteLength":564,
			"byteOffset":26648,
			"target":34963
		},
		{
			"buffer":0,
			"byteLength":6216,
			"byteOffset":27212,
			"target":34962
		},
		{
			"buffer":0,
			"byteLength":6216,
			"byteOffset":33428,
			"target":34962
		},
		{
			"buffer":0,
			"byteLength":2072,
			"byteOffset":39644,
			"target":34962
		},
		{
			"buffer":0,
			"byteLength":8288,
			"byteOffset":41716,
			"target":34962
		},
		{
			"buffer":0,
			"byteLength":1572,
			"byteOffset":50004,
			"target":34963
		},
		{
			"buffer":0,
			"byteLength":512,
			"byteOffset":51576
		},
		{
			"buffer":0,
			"byteLength":8,
			"byteOffset":52088
		},
		{
			"buffer":0,
			"byteLength":24,
			"byteOffset":52096
		},
		{
			"buffer":0,
			"byteLength":128,
			"byteOffset":52120
		},
		{
			"buffer":0,
			"byteLength":512,
			"byteOffset":52248
		},
		{
			"buffer":0,
			"byteLength":24,
			"byteOffset":52760
		},
		{
			"buffer":0,
			"byteLength":24,
			"byteOffset":52784
		},
		{
			"buffer":0,
			"byteLength":32,
			"byteOffset":52808
		},
		{
			"buffer":0,
			"byteLength":24,
			"byteOffset":52840
		},
		{
			"buffer":0,
			"byteLength":24,
			"byteOffset":52864
		},
		{
			"buffer":0,
			"byteLength":32,
			"byteOffset":52888
		},
		{
			"buffer":0,
			"byteLength":24,
			"byteOffset":52920
		},
		{
			"buffer":0,
			"byteLength":24,
			"byteOffset":52944
		},
		{
			"buffer":0,
			"byteLength":512,
			"byteOffset":52968
		},
		{
			"buffer":0,
			"byteLength":24,
			"byteOffset":53480
		},
		{
			"buffer":0,
			"byteLength":24,
			"byteOffset":53504
		},
		{
			"buffer":0,
			"byteLength":512,
			"byteOffset":53528
		},
		{
			"buffer":0,
			"byteLength":24,
			"byteOffset":54040
		},
		{
			"buffer":0,
			"byteLength":24,
			"byteOffset":54064
		},
		{
			"buffer":0,
			"byteLength":32,
			"byteOffset":54088
		},
		{
			"buffer":0,
			"byteLength":24,
			"byteOffset":54120
		},
		{
			"buffer":0,
			"byteLength":24,
			"byteOffset":54144
		},
		{
			"buffer":0,
			"byteLength":512,
			"byteOffset":54168
		},
		{
			"buffer":0,
			"byteLength":24,
			"byteOffset":54680
		},
		{
			"buffer":0,
			"byteLength":24,
			"byteOffset":54704
		},
		{
			"buffer":0,
			"byteLength":512,
			"byteOffset":54728
		},
		{
			"buffer":0,
			"byteLength":24,
			"byteOffset":55240
		}
	],
	"buffers":[
		{
			"byteLength":55264,
			"uri":"fish1-1.bin"
		}
	]
}
