{
	"asset":{
		"generator":"Khronos glTF Blender I/O v4.2.57",
		"version":"2.0"
	},
	"scene":0,
	"scenes":[
		{
			"name":"Scene",
			"nodes":[
				17
			]
		}
	],
	"nodes":[
		{
			"name":"Bone_L.005",
			"rotation":[
				-2.5121478909004595e-15,
				2.5121476791422227e-15,
				-0.7071067690849304,
				0.7071067690849304
			],
			"translation":[
				2.9802322387695312e-08,
				0.061035722494125366,
				7.450578376477779e-09
			]
		},
		{
			"children":[
				0
			],
			"name":"Bone_L.003",
			"rotation":[
				-2.247645269903842e-08,
				-2.2476458028108937e-08,
				0.7071067690849304,
				0.7071067690849304
			],
			"translation":[
				-6.455135981298099e-09,
				0.1821913868188858,
				1.264328552963434e-08
			]
		},
		{
			"name":"Bone_L.006",
			"rotation":[
				-2.5121476791422227e-15,
				-2.5121476791422227e-15,
				0.7071067690849304,
				0.7071067690849304
			],
			"translation":[
				-2.9802322387695312e-08,
				0.061035677790641785,
				7.450578376477779e-09
			]
		},
		{
			"children":[
				2
			],
			"name":"Bone_L.004",
			"rotation":[
				2.2476458028108937e-08,
				-2.247645269903842e-08,
				-0.7071067690849304,
				0.7071067690849304
			],
			"translation":[
				-6.455135981298099e-09,
				0.1821913868188858,
				1.264328552963434e-08
			]
		},
		{
			"children":[
				1,
				3
			],
			"name":"Bone_L.002",
			"rotation":[
				8.432162523774878e-09,
				-0.7071067690849304,
				0.7071067690849304,
				5.338507236274381e-08
			],
			"translation":[
				-1.1798153565223402e-08,
				0.25006425380706787,
				-8.695176134665417e-09
			]
		},
		{
			"children":[
				4
			],
			"name":"Bone_L.001",
			"rotation":[
				1,
				0,
				-4.371138828673793e-08,
				0
			],
			"translation":[
				0.269910603761673,
				-0.02870333194732666,
				-0.01587723195552826
			]
		},
		{
			"name":"Bone_R.005",
			"rotation":[
				-2.5121476791422227e-15,
				-2.5121476791422227e-15,
				0.7071067690849304,
				0.7071067690849304
			],
			"translation":[
				-2.9802322387695312e-08,
				0.061035752296447754,
				7.450578376477779e-09
			]
		},
		{
			"children":[
				6
			],
			"name":"Bone_R.003",
			"rotation":[
				2.2476458028108937e-08,
				-2.247645269903842e-08,
				-0.7071067690849304,
				0.7071067690849304
			],
			"translation":[
				5.3149509682270946e-08,
				0.1821913868188858,
				2.2578667824291188e-09
			]
		},
		{
			"name":"Bone_R.006",
			"rotation":[
				-2.5121478909004595e-15,
				2.5121476791422227e-15,
				-0.7071067690849304,
				0.7071067690849304
			],
			"translation":[
				2.9802322387695312e-08,
				0.0610356330871582,
				7.450578376477779e-09
			]
		},
		{
			"children":[
				8
			],
			"name":"Bone_R.004",
			"rotation":[
				-2.247645269903842e-08,
				-2.2476458028108937e-08,
				0.7071067690849304,
				0.7071067690849304
			],
			"translation":[
				5.3149509682270946e-08,
				0.1821913868188858,
				2.2578667824291188e-09
			]
		},
		{
			"children":[
				7,
				9
			],
			"name":"Bone_R.002",
			"rotation":[
				8.432162523774878e-09,
				-0.7071067690849304,
				0.7071067690849304,
				5.338507236274381e-08
			],
			"translation":[
				-7.140279478790035e-08,
				0.25006425380706787,
				-2.1107158687527772e-08
			]
		},
		{
			"children":[
				10
			],
			"name":"Bone_R.001",
			"rotation":[
				1,
				0,
				-4.371138828673793e-08,
				0
			],
			"translation":[
				-0.269910603761673,
				-0.02870333194732666,
				-0.01587723195552826
			]
		},
		{
			"name":"Bone.002",
			"rotation":[
				-0.7071067690849304,
				0,
				0,
				0.7071067690849304
			],
			"translation":[
				0,
				0.14930713176727295,
				-0.14930714666843414
			]
		},
		{
			"name":"Bone.005",
			"rotation":[
				3.0908619663705394e-08,
				0.7071067690849304,
				0.7071067690849304,
				3.0908619663705394e-08
			],
			"translation":[
				2.8973943244636757e-09,
				0.6830571889877319,
				0.2662591338157654
			]
		},
		{
			"name":"Bone.006",
			"rotation":[
				3.0908619663705394e-08,
				-0.7071067690849304,
				-0.7071067690849304,
				3.0908616110991716e-08
			],
			"scale":[
				1,
				0.9999997019767761,
				0.9999999403953552
			],
			"translation":[
				2.8973943244636757e-09,
				0.6044068932533264,
				0.2662591338157654
			]
		},
		{
			"children":[
				5,
				11,
				12,
				13,
				14
			],
			"name":"Bone",
			"translation":[
				0,
				0.015877127647399902,
				0.150832399725914
			]
		},
		{
			"mesh":0,
			"name":"Cube",
			"skin":0
		},
		{
			"children":[
				16,
				15
			],
			"name":"Armature",
			"scale":[
				1.63838529586792,
				1.63838529586792,
				1.63838529586792
			],
			"translation":[
				0,
				0.5970757603645325,
				0
			]
		}
	],
	"materials":[
		{
			"doubleSided":true,
			"name":"Material.001",
			"pbrMetallicRoughness":{
				"baseColorFactor":[
					1,
					1,
					1,
					1
				],
				"metallicFactor":0,
				"roughnessFactor":0.5
			}
		},
		{
			"doubleSided":true,
			"name":"Material.002",
			"pbrMetallicRoughness":{
				"baseColorFactor":[
					1,
					0.0466914065182209,
					0.04198881983757019,
					1
				],
				"metallicFactor":0,
				"roughnessFactor":0.5
			}
		},
		{
			"doubleSided":true,
			"name":"Material",
			"pbrMetallicRoughness":{
				"baseColorFactor":[
					0.8000000715255737,
					0.27384188771247864,
					0.06595353782176971,
					1
				],
				"metallicFactor":0,
				"roughnessFactor":0.5
			}
		},
		{
			"doubleSided":true,
			"name":"Material.003",
			"pbrMetallicRoughness":{
				"baseColorFactor":[
					0,
					0,
					0,
					1
				],
				"metallicFactor":0,
				"roughnessFactor":0.5
			}
		}
	],
	"meshes":[
		{
			"name":"Cube",
			"primitives":[
				{
					"attributes":{
						"POSITION":0,
						"NORMAL":1,
						"JOINTS_0":2,
						"WEIGHTS_0":3
					},
					"indices":4,
					"material":0
				},
				{
					"attributes":{
						"POSITION":5,
						"NORMAL":6,
						"JOINTS_0":7,
						"WEIGHTS_0":8
					},
					"indices":9,
					"material":1
				},
				{
					"attributes":{
						"POSITION":10,
						"NORMAL":11,
						"JOINTS_0":12,
						"WEIGHTS_0":13
					},
					"indices":14,
					"material":2
				},
				{
					"attributes":{
						"POSITION":15,
						"NORMAL":16,
						"JOINTS_0":17,
						"WEIGHTS_0":18
					},
					"indices":19,
					"material":3
				}
			]
		}
	],
	"skins":[
		{
			"inverseBindMatrices":20,
			"joints":[
				15,
				5,
				4,
				1,
				0,
				3,
				2,
				11,
				10,
				7,
				6,
				9,
				8,
				12,
				13,
				14
			],
			"name":"Armature"
		}
	],
	"accessors":[
		{
			"bufferView":0,
			"componentType":5126,
			"count":179,
			"max":[
				0.5450660586357117,
				2.313643455505371,
				0.949629008769989
			],
			"min":[
				-5.9173789423994094e-08,
				0.5428537130355835,
				-0.7752885222434998
			],
			"type":"VEC3"
		},
		{
			"bufferView":1,
			"componentType":5126,
			"count":179,
			"type":"VEC3"
		},
		{
			"bufferView":2,
			"componentType":5121,
			"count":179,
			"type":"VEC4"
		},
		{
			"bufferView":3,
			"componentType":5126,
			"count":179,
			"type":"VEC4"
		},
		{
			"bufferView":4,
			"componentType":5123,
			"count":393,
			"type":"SCALAR"
		},
		{
			"bufferView":5,
			"componentType":5126,
			"count":32,
			"max":[
				0.13225191831588745,
				2.4666059017181396,
				0.8676462173461914
			],
			"min":[
				-2.96806916821879e-08,
				1.5598074197769165,
				-0.010729542002081871
			],
			"type":"VEC3"
		},
		{
			"bufferView":6,
			"componentType":5126,
			"count":32,
			"type":"VEC3"
		},
		{
			"bufferView":7,
			"componentType":5121,
			"count":32,
			"type":"VEC4"
		},
		{
			"bufferView":8,
			"componentType":5126,
			"count":32,
			"type":"VEC4"
		},
		{
			"bufferView":9,
			"componentType":5123,
			"count":54,
			"type":"SCALAR"
		},
		{
			"bufferView":10,
			"componentType":5126,
			"count":111,
			"max":[
				0.605690062046051,
				1.8110860586166382,
				0.9496291279792786
			],
			"min":[
				-2.9773461918125577e-08,
				0.10969400405883789,
				0.0691089853644371
			],
			"type":"VEC3"
		},
		{
			"bufferView":11,
			"componentType":5126,
			"count":111,
			"type":"VEC3"
		},
		{
			"bufferView":12,
			"componentType":5121,
			"count":111,
			"type":"VEC4"
		},
		{
			"bufferView":13,
			"componentType":5126,
			"count":111,
			"type":"VEC4"
		},
		{
			"bufferView":14,
			"componentType":5123,
			"count":234,
			"type":"SCALAR"
		},
		{
			"bufferView":15,
			"componentType":5126,
			"count":4,
			"max":[
				0.3752981424331665,
				2.0806970596313477,
				0.440603643655777
			],
			"min":[
				0.37437888979911804,
				1.9537267684936523,
				0.3133546710014343
			],
			"type":"VEC3"
		},
		{
			"bufferView":16,
			"componentType":5126,
			"count":4,
			"type":"VEC3"
		},
		{
			"bufferView":17,
			"componentType":5121,
			"count":4,
			"type":"VEC4"
		},
		{
			"bufferView":18,
			"componentType":5126,
			"count":4,
			"type":"VEC4"
		},
		{
			"bufferView":19,
			"componentType":5123,
			"count":6,
			"type":"SCALAR"
		},
		{
			"bufferView":20,
			"componentType":5126,
			"count":16,
			"type":"MAT4"
		}
	],
	"bufferViews":[
		{
			"buffer":0,
			"byteLength":2148,
			"byteOffset":0,
			"target":34962
		},
		{
			"buffer":0,
			"byteLength":2148,
			"byteOffset":2148,
			"target":34962
		},
		{
			"buffer":0,
			"byteLength":716,
			"byteOffset":4296,
			"target":34962
		},
		{
			"buffer":0,
			"byteLength":2864,
			"byteOffset":5012,
			"target":34962
		},
		{
			"buffer":0,
			"byteLength":786,
			"byteOffset":7876,
			"target":34963
		},
		{
			"buffer":0,
			"byteLength":384,
			"byteOffset":8664,
			"target":34962
		},
		{
			"buffer":0,
			"byteLength":384,
			"byteOffset":9048,
			"target":34962
		},
		{
			"buffer":0,
			"byteLength":128,
			"byteOffset":9432,
			"target":34962
		},
		{
			"buffer":0,
			"byteLength":512,
			"byteOffset":9560,
			"target":34962
		},
		{
			"buffer":0,
			"byteLength":108,
			"byteOffset":10072,
			"target":34963
		},
		{
			"buffer":0,
			"byteLength":1332,
			"byteOffset":10180,
			"target":34962
		},
		{
			"buffer":0,
			"byteLength":1332,
			"byteOffset":11512,
			"target":34962
		},
		{
			"buffer":0,
			"byteLength":444,
			"byteOffset":12844,
			"target":34962
		},
		{
			"buffer":0,
			"byteLength":1776,
			"byteOffset":13288,
			"target":34962
		},
		{
			"buffer":0,
			"byteLength":468,
			"byteOffset":15064,
			"target":34963
		},
		{
			"buffer":0,
			"byteLength":48,
			"byteOffset":15532,
			"target":34962
		},
		{
			"buffer":0,
			"byteLength":48,
			"byteOffset":15580,
			"target":34962
		},
		{
			"buffer":0,
			"byteLength":16,
			"byteOffset":15628,
			"target":34962
		},
		{
			"buffer":0,
			"byteLength":64,
			"byteOffset":15644,
			"target":34962
		},
		{
			"buffer":0,
			"byteLength":12,
			"byteOffset":15708,
			"target":34963
		},
		{
			"buffer":0,
			"byteLength":1024,
			"byteOffset":15720
		}
	],
	"buffers":[
		{
			"byteLength":16744,
			"uri":"untitled.bin"
		}
	]
}
