{
	"asset":{
		"generator":"Khronos glTF Blender I/O v4.2.57",
		"version":"2.0"
	},
	"scene":0,
	"scenes":[
		{
			"name":"Scene",
			"nodes":[
				1,
				2,
				3,
				4,
				5
			]
		}
	],
	"nodes":[
		{
			"mesh":0,
			"name":"wheel-back",
			"translation":[
				0,
				0.5,
				-1.0499995946884155
			]
		},
		{
			"children":[
				0
			],
			"mesh":1,
			"name":"body",
			"rotation":[
				0,
				0.7145969271659851,
				0,
				0.6995365023612976
			],
			"translation":[
				0,
				0.20000000298023224,
				0
			]
		},
		{
			"mesh":2,
			"name":"wheel-back-right",
			"rotation":[
				0,
				0.7150704860687256,
				0,
				0.6990523934364319
			],
			"translation":[
				-0.6330403089523315,
				0.30000001192092896,
				0.3944200277328491
			]
		},
		{
			"mesh":3,
			"name":"wheel-front-left",
			"rotation":[
				0,
				0.7150704860687256,
				0,
				0.6990523934364319
			],
			"translation":[
				0.6730300784111023,
				0.30000001192092896,
				-0.2353261113166809
			]
		},
		{
			"mesh":4,
			"name":"wheel-front-right",
			"rotation":[
				0,
				0.7150704860687256,
				0,
				0.6990523934364319
			],
			"translation":[
				0.6866210103034973,
				0.30000001192092896,
				0.36451995372772217
			]
		},
		{
			"mesh":5,
			"name":"wheel-back-left",
			"rotation":[
				0,
				0.7150704860687256,
				0,
				0.6990523934364319
			],
			"translation":[
				-0.6466312408447266,
				0.30000001192092896,
				-0.20542603731155396
			]
		}
	],
	"materials":[
		{
			"doubleSided":true,
			"name":"colormap",
			"pbrMetallicRoughness":{
				"baseColorTexture":{
					"index":0
				},
				"metallicFactor":0
			}
		}
	],
	"meshes":[
		{
			"name":"wheel-back",
			"primitives":[
				{
					"attributes":{
						"POSITION":0,
						"NORMAL":1,
						"TEXCOORD_0":2
					},
					"indices":3,
					"material":0
				}
			]
		},
		{
			"name":"body",
			"primitives":[
				{
					"attributes":{
						"POSITION":4,
						"NORMAL":5,
						"TEXCOORD_0":6
					},
					"indices":7,
					"material":0
				}
			]
		},
		{
			"name":"wheel-back-right",
			"primitives":[
				{
					"attributes":{
						"POSITION":8,
						"NORMAL":9,
						"TEXCOORD_0":10
					},
					"indices":11,
					"material":0
				}
			]
		},
		{
			"name":"wheel-front-left",
			"primitives":[
				{
					"attributes":{
						"POSITION":12,
						"NORMAL":13,
						"TEXCOORD_0":14
					},
					"indices":3,
					"material":0
				}
			]
		},
		{
			"name":"wheel-front-right",
			"primitives":[
				{
					"attributes":{
						"POSITION":15,
						"NORMAL":16,
						"TEXCOORD_0":17
					},
					"indices":11,
					"material":0
				}
			]
		},
		{
			"name":"wheel-back-left",
			"primitives":[
				{
					"attributes":{
						"POSITION":18,
						"NORMAL":19,
						"TEXCOORD_0":20
					},
					"indices":3,
					"material":0
				}
			]
		}
	],
	"textures":[
		{
			"sampler":0,
			"source":0
		}
	],
	"images":[
		{
			"mimeType":"image/png",
			"name":"colormap",
			"uri":"colormap.png"
		}
	],
	"accessors":[
		{
			"bufferView":0,
			"componentType":5126,
			"count":528,
			"max":[
				0.30000004172325134,
				0.30000001192092896,
				0.050000037997961044
			],
			"min":[
				-0.30000007152557373,
				-0.30000001192092896,
				-0.30000022053718567
			],
			"type":"VEC3"
		},
		{
			"bufferView":1,
			"componentType":5126,
			"count":528,
			"type":"VEC3"
		},
		{
			"bufferView":2,
			"componentType":5126,
			"count":528,
			"type":"VEC2"
		},
		{
			"bufferView":3,
			"componentType":5123,
			"count":996,
			"type":"SCALAR"
		},
		{
			"bufferView":4,
			"componentType":5126,
			"count":1213,
			"max":[
				0.75,
				1.100000023841858,
				1.350000023841858
			],
			"min":[
				-0.75,
				0,
				-1.1999996900558472
			],
			"type":"VEC3"
		},
		{
			"bufferView":5,
			"componentType":5126,
			"count":1213,
			"type":"VEC3"
		},
		{
			"bufferView":6,
			"componentType":5126,
			"count":1213,
			"type":"VEC2"
		},
		{
			"bufferView":7,
			"componentType":5123,
			"count":2442,
			"type":"SCALAR"
		},
		{
			"bufferView":8,
			"componentType":5126,
			"count":528,
			"max":[
				0.05000000074505806,
				0.30000001192092896,
				0.30000001192092896
			],
			"min":[
				-0.3000001013278961,
				-0.30000001192092896,
				-0.30000001192092896
			],
			"type":"VEC3"
		},
		{
			"bufferView":9,
			"componentType":5126,
			"count":528,
			"type":"VEC3"
		},
		{
			"bufferView":10,
			"componentType":5126,
			"count":528,
			"type":"VEC2"
		},
		{
			"bufferView":11,
			"componentType":5123,
			"count":996,
			"type":"SCALAR"
		},
		{
			"bufferView":12,
			"componentType":5126,
			"count":528,
			"max":[
				0.3000001013278961,
				0.30000001192092896,
				0.30000001192092896
			],
			"min":[
				-0.05000000074505806,
				-0.30000001192092896,
				-0.30000001192092896
			],
			"type":"VEC3"
		},
		{
			"bufferView":13,
			"componentType":5126,
			"count":528,
			"type":"VEC3"
		},
		{
			"bufferView":14,
			"componentType":5126,
			"count":528,
			"type":"VEC2"
		},
		{
			"bufferView":15,
			"componentType":5126,
			"count":528,
			"max":[
				0.05000000074505806,
				0.30000001192092896,
				0.30000001192092896
			],
			"min":[
				-0.3000001013278961,
				-0.30000001192092896,
				-0.30000001192092896
			],
			"type":"VEC3"
		},
		{
			"bufferView":16,
			"componentType":5126,
			"count":528,
			"type":"VEC3"
		},
		{
			"bufferView":17,
			"componentType":5126,
			"count":528,
			"type":"VEC2"
		},
		{
			"bufferView":18,
			"componentType":5126,
			"count":528,
			"max":[
				0.3000001013278961,
				0.30000001192092896,
				0.30000001192092896
			],
			"min":[
				-0.05000000074505806,
				-0.30000001192092896,
				-0.30000001192092896
			],
			"type":"VEC3"
		},
		{
			"bufferView":19,
			"componentType":5126,
			"count":528,
			"type":"VEC3"
		},
		{
			"bufferView":20,
			"componentType":5126,
			"count":528,
			"type":"VEC2"
		}
	],
	"bufferViews":[
		{
			"buffer":0,
			"byteLength":6336,
			"byteOffset":0,
			"target":34962
		},
		{
			"buffer":0,
			"byteLength":6336,
			"byteOffset":6336,
			"target":34962
		},
		{
			"buffer":0,
			"byteLength":4224,
			"byteOffset":12672,
			"target":34962
		},
		{
			"buffer":0,
			"byteLength":1992,
			"byteOffset":16896,
			"target":34963
		},
		{
			"buffer":0,
			"byteLength":14556,
			"byteOffset":18888,
			"target":34962
		},
		{
			"buffer":0,
			"byteLength":14556,
			"byteOffset":33444,
			"target":34962
		},
		{
			"buffer":0,
			"byteLength":9704,
			"byteOffset":48000,
			"target":34962
		},
		{
			"buffer":0,
			"byteLength":4884,
			"byteOffset":57704,
			"target":34963
		},
		{
			"buffer":0,
			"byteLength":6336,
			"byteOffset":62588,
			"target":34962
		},
		{
			"buffer":0,
			"byteLength":6336,
			"byteOffset":68924,
			"target":34962
		},
		{
			"buffer":0,
			"byteLength":4224,
			"byteOffset":75260,
			"target":34962
		},
		{
			"buffer":0,
			"byteLength":1992,
			"byteOffset":79484,
			"target":34963
		},
		{
			"buffer":0,
			"byteLength":6336,
			"byteOffset":81476,
			"target":34962
		},
		{
			"buffer":0,
			"byteLength":6336,
			"byteOffset":87812,
			"target":34962
		},
		{
			"buffer":0,
			"byteLength":4224,
			"byteOffset":94148,
			"target":34962
		},
		{
			"buffer":0,
			"byteLength":6336,
			"byteOffset":98372,
			"target":34962
		},
		{
			"buffer":0,
			"byteLength":6336,
			"byteOffset":104708,
			"target":34962
		},
		{
			"buffer":0,
			"byteLength":4224,
			"byteOffset":111044,
			"target":34962
		},
		{
			"buffer":0,
			"byteLength":6336,
			"byteOffset":115268,
			"target":34962
		},
		{
			"buffer":0,
			"byteLength":6336,
			"byteOffset":121604,
			"target":34962
		},
		{
			"buffer":0,
			"byteLength":4224,
			"byteOffset":127940,
			"target":34962
		}
	],
	"samplers":[
		{
			"magFilter":9728,
			"minFilter":9984
		}
	],
	"buffers":[
		{
			"byteLength":132164,
			"uri":"car1.bin"
		}
	]
}
