{
	"asset":{
		"generator":"Khronos glTF Blender I/O v4.2.57",
		"version":"2.0"
	},
	"scene":0,
	"scenes":[
		{
			"name":"Scene",
			"nodes":[
				1,
				2,
				3,
				4,
				5,
				6
			]
		}
	],
	"nodes":[
		{
			"mesh":0,
			"name":"wheel-back",
			"translation":[
				0,
				0.5000000596046448,
				-1.049999713897705
			]
		},
		{
			"children":[
				0
			],
			"mesh":1,
			"name":"body",
			"rotation":[
				0,
				0.7145969271659851,
				0,
				0.6995365023612976
			],
			"scale":[
				0.8129308819770813,
				0.812930703163147,
				0.8129308819770813
			],
			"translation":[
				0.002992343157529831,
				0.2149655520915985,
				0.011904634535312653
			]
		},
		{
			"mesh":2,
			"name":"wheel-back-right",
			"rotation":[
				0,
				0.7150704860687256,
				0,
				0.6990523934364319
			],
			"scale":[
				0.812930703163147,
				0.812930703163147,
				0.812930703163147
			],
			"translation":[
				-0.46041446924209595,
				0.2962586283683777,
				0.3325408101081848
			]
		},
		{
			"mesh":3,
			"name":"wheel-front-left",
			"rotation":[
				0,
				0.7150704860687256,
				0,
				0.6990523934364319
			],
			"scale":[
				0.812930703163147,
				0.812930703163147,
				0.812930703163147
			],
			"translation":[
				0.6158146262168884,
				0.2962586283683777,
				-0.30029377341270447
			]
		},
		{
			"mesh":4,
			"name":"wheel-front-right",
			"rotation":[
				0,
				0.7150704860687256,
				0,
				0.6990523934364319
			],
			"scale":[
				0.812930703163147,
				0.812930703163147,
				0.812930703163147
			],
			"translation":[
				0.6503926515579224,
				0.2962586283683777,
				0.3082340955734253
			]
		},
		{
			"mesh":5,
			"name":"wheel-back-left",
			"rotation":[
				0,
				0.7150704860687256,
				0,
				0.6990523934364319
			],
			"scale":[
				0.812930703163147,
				0.812930703163147,
				0.812930703163147
			],
			"translation":[
				-0.46747249364852905,
				0.2962586283683777,
				-0.31737789511680603
			]
		},
		{
			"mesh":6,
			"name":"COL",
			"scale":[
				1.148099422454834,
				1,
				1
			],
			"translation":[
				0,
				1.0502018928527832,
				0
			]
		}
	],
	"materials":[
		{
			"doubleSided":true,
			"name":"colormap",
			"pbrMetallicRoughness":{
				"baseColorTexture":{
					"index":0
				},
				"metallicFactor":0
			}
		}
	],
	"meshes":[
		{
			"name":"wheel-back",
			"primitives":[
				{
					"attributes":{
						"POSITION":0,
						"NORMAL":1,
						"TEXCOORD_0":2
					},
					"indices":3,
					"material":0
				}
			]
		},
		{
			"name":"body",
			"primitives":[
				{
					"attributes":{
						"POSITION":4,
						"NORMAL":5,
						"TEXCOORD_0":6
					},
					"indices":7,
					"material":0
				}
			]
		},
		{
			"name":"wheel-back-right",
			"primitives":[
				{
					"attributes":{
						"POSITION":8,
						"NORMAL":9,
						"TEXCOORD_0":10
					},
					"indices":11,
					"material":0
				}
			]
		},
		{
			"name":"wheel-front-left",
			"primitives":[
				{
					"attributes":{
						"POSITION":12,
						"NORMAL":13,
						"TEXCOORD_0":14
					},
					"indices":3,
					"material":0
				}
			]
		},
		{
			"name":"wheel-front-right",
			"primitives":[
				{
					"attributes":{
						"POSITION":15,
						"NORMAL":16,
						"TEXCOORD_0":17
					},
					"indices":11,
					"material":0
				}
			]
		},
		{
			"name":"wheel-back-left",
			"primitives":[
				{
					"attributes":{
						"POSITION":18,
						"NORMAL":19,
						"TEXCOORD_0":20
					},
					"indices":3,
					"material":0
				}
			]
		},
		{
			"name":"\u7acb\u65b9\u4f53",
			"primitives":[
				{
					"attributes":{
						"POSITION":21,
						"NORMAL":22,
						"TEXCOORD_0":23
					},
					"indices":24
				}
			]
		}
	],
	"textures":[
		{
			"sampler":0,
			"source":0
		}
	],
	"images":[
		{
			"mimeType":"image/png",
			"name":"colormap",
			"uri":"colormap.png"
		}
	],
	"accessors":[
		{
			"bufferView":0,
			"componentType":5126,
			"count":528,
			"max":[
				0.30000004172325134,
				0.30000001192092896,
				0.050000037997961044
			],
			"min":[
				-0.30000007152557373,
				-0.30000001192092896,
				-0.30000022053718567
			],
			"type":"VEC3"
		},
		{
			"bufferView":1,
			"componentType":5126,
			"count":528,
			"type":"VEC3"
		},
		{
			"bufferView":2,
			"componentType":5126,
			"count":528,
			"type":"VEC2"
		},
		{
			"bufferView":3,
			"componentType":5123,
			"count":996,
			"type":"SCALAR"
		},
		{
			"bufferView":4,
			"componentType":5126,
			"count":1213,
			"max":[
				0.75,
				1.100000023841858,
				1.350000023841858
			],
			"min":[
				-0.75,
				0,
				-1.1999996900558472
			],
			"type":"VEC3"
		},
		{
			"bufferView":5,
			"componentType":5126,
			"count":1213,
			"type":"VEC3"
		},
		{
			"bufferView":6,
			"componentType":5126,
			"count":1213,
			"type":"VEC2"
		},
		{
			"bufferView":7,
			"componentType":5123,
			"count":2442,
			"type":"SCALAR"
		},
		{
			"bufferView":8,
			"componentType":5126,
			"count":528,
			"max":[
				0.05000000074505806,
				0.30000001192092896,
				0.30000001192092896
			],
			"min":[
				-0.3000001013278961,
				-0.30000001192092896,
				-0.30000001192092896
			],
			"type":"VEC3"
		},
		{
			"bufferView":9,
			"componentType":5126,
			"count":528,
			"type":"VEC3"
		},
		{
			"bufferView":10,
			"componentType":5126,
			"count":528,
			"type":"VEC2"
		},
		{
			"bufferView":11,
			"componentType":5123,
			"count":996,
			"type":"SCALAR"
		},
		{
			"bufferView":12,
			"componentType":5126,
			"count":528,
			"max":[
				0.3000001013278961,
				0.30000001192092896,
				0.30000001192092896
			],
			"min":[
				-0.05000000074505806,
				-0.30000001192092896,
				-0.30000001192092896
			],
			"type":"VEC3"
		},
		{
			"bufferView":13,
			"componentType":5126,
			"count":528,
			"type":"VEC3"
		},
		{
			"bufferView":14,
			"componentType":5126,
			"count":528,
			"type":"VEC2"
		},
		{
			"bufferView":15,
			"componentType":5126,
			"count":528,
			"max":[
				0.05000000074505806,
				0.30000001192092896,
				0.30000001192092896
			],
			"min":[
				-0.3000001013278961,
				-0.30000001192092896,
				-0.30000001192092896
			],
			"type":"VEC3"
		},
		{
			"bufferView":16,
			"componentType":5126,
			"count":528,
			"type":"VEC3"
		},
		{
			"bufferView":17,
			"componentType":5126,
			"count":528,
			"type":"VEC2"
		},
		{
			"bufferView":18,
			"componentType":5126,
			"count":528,
			"max":[
				0.3000001013278961,
				0.30000001192092896,
				0.30000001192092896
			],
			"min":[
				-0.05000000074505806,
				-0.30000001192092896,
				-0.30000001192092896
			],
			"type":"VEC3"
		},
		{
			"bufferView":19,
			"componentType":5126,
			"count":528,
			"type":"VEC3"
		},
		{
			"bufferView":20,
			"componentType":5126,
			"count":528,
			"type":"VEC2"
		},
		{
			"bufferView":21,
			"componentType":5126,
			"count":24,
			"max":[
				1,
				1,
				1
			],
			"min":[
				-1,
				-1,
				-1
			],
			"type":"VEC3"
		},
		{
			"bufferView":22,
			"componentType":5126,
			"count":24,
			"type":"VEC3"
		},
		{
			"bufferView":23,
			"componentType":5126,
			"count":24,
			"type":"VEC2"
		},
		{
			"bufferView":24,
			"componentType":5123,
			"count":36,
			"type":"SCALAR"
		}
	],
	"bufferViews":[
		{
			"buffer":0,
			"byteLength":6336,
			"byteOffset":0,
			"target":34962
		},
		{
			"buffer":0,
			"byteLength":6336,
			"byteOffset":6336,
			"target":34962
		},
		{
			"buffer":0,
			"byteLength":4224,
			"byteOffset":12672,
			"target":34962
		},
		{
			"buffer":0,
			"byteLength":1992,
			"byteOffset":16896,
			"target":34963
		},
		{
			"buffer":0,
			"byteLength":14556,
			"byteOffset":18888,
			"target":34962
		},
		{
			"buffer":0,
			"byteLength":14556,
			"byteOffset":33444,
			"target":34962
		},
		{
			"buffer":0,
			"byteLength":9704,
			"byteOffset":48000,
			"target":34962
		},
		{
			"buffer":0,
			"byteLength":4884,
			"byteOffset":57704,
			"target":34963
		},
		{
			"buffer":0,
			"byteLength":6336,
			"byteOffset":62588,
			"target":34962
		},
		{
			"buffer":0,
			"byteLength":6336,
			"byteOffset":68924,
			"target":34962
		},
		{
			"buffer":0,
			"byteLength":4224,
			"byteOffset":75260,
			"target":34962
		},
		{
			"buffer":0,
			"byteLength":1992,
			"byteOffset":79484,
			"target":34963
		},
		{
			"buffer":0,
			"byteLength":6336,
			"byteOffset":81476,
			"target":34962
		},
		{
			"buffer":0,
			"byteLength":6336,
			"byteOffset":87812,
			"target":34962
		},
		{
			"buffer":0,
			"byteLength":4224,
			"byteOffset":94148,
			"target":34962
		},
		{
			"buffer":0,
			"byteLength":6336,
			"byteOffset":98372,
			"target":34962
		},
		{
			"buffer":0,
			"byteLength":6336,
			"byteOffset":104708,
			"target":34962
		},
		{
			"buffer":0,
			"byteLength":4224,
			"byteOffset":111044,
			"target":34962
		},
		{
			"buffer":0,
			"byteLength":6336,
			"byteOffset":115268,
			"target":34962
		},
		{
			"buffer":0,
			"byteLength":6336,
			"byteOffset":121604,
			"target":34962
		},
		{
			"buffer":0,
			"byteLength":4224,
			"byteOffset":127940,
			"target":34962
		},
		{
			"buffer":0,
			"byteLength":288,
			"byteOffset":132164,
			"target":34962
		},
		{
			"buffer":0,
			"byteLength":288,
			"byteOffset":132452,
			"target":34962
		},
		{
			"buffer":0,
			"byteLength":192,
			"byteOffset":132740,
			"target":34962
		},
		{
			"buffer":0,
			"byteLength":72,
			"byteOffset":132932,
			"target":34963
		}
	],
	"samplers":[
		{
			"magFilter":9728,
			"minFilter":9984
		}
	],
	"buffers":[
		{
			"byteLength":133004,
			"uri":"car1COL.bin"
		}
	]
}
